<mxfile host="Electron" modified="2024-02-12T04:25:56.220Z" agent="Mozilla/5.0 (Windows NT 10.0; Win64; x64) AppleWebKit/537.36 (KHTML, like Gecko) draw.io/22.1.2 Chrome/114.0.5735.289 Electron/25.9.4 Safari/537.36" etag="LBLT1xloM5yuQXi3QA08" version="22.1.2" type="device">
  <diagram name="Page-1" id="pqXDmYsyDQipO_7eUeVs">
    <mxGraphModel dx="1098" dy="1104" grid="1" gridSize="10" guides="1" tooltips="1" connect="1" arrows="1" fold="1" page="1" pageScale="1" pageWidth="850" pageHeight="1100" math="0" shadow="0">
      <root>
        <mxCell id="0" />
        <mxCell id="1" parent="0" />
        <mxCell id="6EtSJblDU6huGWQIT681-1" value="" style="endArrow=classic;html=1;rounded=0;" edge="1" parent="1">
          <mxGeometry width="50" height="50" relative="1" as="geometry">
            <mxPoint x="280" y="640" as="sourcePoint" />
            <mxPoint x="280" y="580" as="targetPoint" />
          </mxGeometry>
        </mxCell>
        <mxCell id="6EtSJblDU6huGWQIT681-2" value="" style="endArrow=classic;html=1;rounded=0;" edge="1" parent="1">
          <mxGeometry width="50" height="50" relative="1" as="geometry">
            <mxPoint x="280" y="580" as="sourcePoint" />
            <mxPoint x="330" y="530" as="targetPoint" />
          </mxGeometry>
        </mxCell>
        <mxCell id="6EtSJblDU6huGWQIT681-3" value="" style="endArrow=classic;html=1;rounded=0;" edge="1" parent="1">
          <mxGeometry width="50" height="50" relative="1" as="geometry">
            <mxPoint x="330" y="530" as="sourcePoint" />
            <mxPoint x="410" y="530" as="targetPoint" />
          </mxGeometry>
        </mxCell>
        <mxCell id="6EtSJblDU6huGWQIT681-4" value="" style="endArrow=classic;html=1;rounded=0;" edge="1" parent="1">
          <mxGeometry width="50" height="50" relative="1" as="geometry">
            <mxPoint x="410" y="530" as="sourcePoint" />
            <mxPoint x="450" y="580" as="targetPoint" />
          </mxGeometry>
        </mxCell>
        <mxCell id="6EtSJblDU6huGWQIT681-5" value="" style="endArrow=classic;html=1;rounded=0;" edge="1" parent="1">
          <mxGeometry width="50" height="50" relative="1" as="geometry">
            <mxPoint x="450" y="580" as="sourcePoint" />
            <mxPoint x="510" y="580" as="targetPoint" />
          </mxGeometry>
        </mxCell>
        <mxCell id="6EtSJblDU6huGWQIT681-10" value="" style="endArrow=classic;html=1;rounded=0;" edge="1" parent="1">
          <mxGeometry width="50" height="50" relative="1" as="geometry">
            <mxPoint x="510" y="580" as="sourcePoint" />
            <mxPoint x="560" y="530" as="targetPoint" />
          </mxGeometry>
        </mxCell>
        <mxCell id="6EtSJblDU6huGWQIT681-11" value="" style="endArrow=classic;html=1;rounded=0;" edge="1" parent="1">
          <mxGeometry width="50" height="50" relative="1" as="geometry">
            <mxPoint x="560" y="530" as="sourcePoint" />
            <mxPoint x="640" y="530" as="targetPoint" />
          </mxGeometry>
        </mxCell>
        <mxCell id="6EtSJblDU6huGWQIT681-12" value="" style="endArrow=classic;html=1;rounded=0;" edge="1" parent="1">
          <mxGeometry width="50" height="50" relative="1" as="geometry">
            <mxPoint x="640" y="530" as="sourcePoint" />
            <mxPoint x="680" y="580" as="targetPoint" />
          </mxGeometry>
        </mxCell>
        <mxCell id="6EtSJblDU6huGWQIT681-13" value="" style="endArrow=classic;html=1;rounded=0;" edge="1" parent="1">
          <mxGeometry width="50" height="50" relative="1" as="geometry">
            <mxPoint x="680" y="580" as="sourcePoint" />
            <mxPoint x="680" y="640" as="targetPoint" />
          </mxGeometry>
        </mxCell>
        <mxCell id="6EtSJblDU6huGWQIT681-15" value="" style="shape=image;verticalLabelPosition=bottom;labelBackgroundColor=default;verticalAlign=top;aspect=fixed;imageAspect=0;image=data:image/png,iVBORw0KGgoAAAANSUhEUgAAAgAAAAIACAYAAAD0eNT6AAAABHNCSVQICAgIfAhkiAAAAAlwSFlzAAARTQAAEU0BwDlgYwAAABl0RVh0U29mdHdhcmUAd3d3Lmlua3NjYXBlLm9yZ5vuPBoAACAASURBVHic7N13uF1Vtf7x75vQexFBOhKaCkoRBKlyFQGlSxdseG0oXhUs199tNmwXL6ACIiIdBEG6XoTQ8dJRgdAhIihgSAIEQjJ+f8x1wiGcnLPLWmusufb4PM95opCz90ty1hpjzznXnDIzQr0kLQdMANYCVgeWBBYDFh/l10WBF4FpwPQxfv0LcD9wH/CYmc2q578shNAWksYBK5PuU2sV/3u0e9TQrwsCzzH2vepZ4CHSfeo+M3u6pv+0UFA0ANWQ9HpgbVKhH/paq/h1iRqjvES6yIYagvuHfT1kZrNrzBJCaBhJK/FKkR/+tSawUI1R/kHRDMz1NcnMnq0xx8CIBqAkktYAthn2tYZvoo5MAa4FrgImArfFaEEI7VV8ql8f2Jp0n9oKeL1rqM7cQ7pHTQSuNrO/OOdphWgAeiRpAq8u+Kv6JirFNFJDMJHUFNxiZi+7Jgoh9EzSfMCGpHvU1qSCv5RrqHI8AFxN0RSY2cO+cfIUDUCHJC0I7AzsAWwLrOQaqB7PAdcBFwNnmdmTznlCCGOQtAKwN+l+tQVpbr7tHiN9aDkXuNTMXvKNk4doAEYhaTzwLmB/YHfSYr1BNQu4EjgdOC/m5EJoDklLkT6c7AdsB4z3TeRqCnAecAZwZUxrzls0ACOQtDnpQtobWN45ThO9CFxCusAuMrMXnPOEMHAkLQK8n3Sv2hFYwDdRIz0BnA2cYWY3eodpmmgACpLWAz5IuphW902TlWnA+aSRgd/GUwUhVKdYxLcjaVRyFwZjeL8sDwFnAqeY2d3eYZpg4BsASVsDRwA7eWdpgXuB75EusJiDC6EkxRqkg4EvkR4lDv25BDjSzK72DuJpIBsASSJ1z0cAmzvHaaPHgf8GjjOzad5hQsiVpCWATwKHASs4x2mjG4Ajgd/YABbDgWoAJC0AHEDqotdzjjMIngV+DPwoniAIoXPFSv7DgE8w2IuP63I3afTytEEavRyIBkDS4sDHgc8zGI/vNc0M4GTg+2Z2v3eYEJqq2F/kS6Th/gWd4wyiv5BGL48fhNHLVjcAkuYHPgv8K+3Y/CJ3s4FTgS+b2V+9w4TQFMUn/iOBA4FxznFCepTwv4CjzWymd5iqtLYBkPQe4EfAut5ZwmtMI11cR7X54gphLMM+pPwb6SCd0Cx3A581s//1DlKF1jUAxZ78/w3s6p0ljGkS8Dkzu8w7SAh1k/Ru0oeUWI/UfOcCXzCzR7yDlKk1DUCxKcZXgC9S7wlWoX8XAp83swe8g4RQNUmrAT8k7dwX8vEC8B3gu2Y2wztMGVrRAEjaG/g+sIp3ltCzF4EfAN8ys+e8w4RQNkkLAYcDXwYWdo4TevcQ6QPLBd5B+pV1A1CsmD2BdDhPaIfJwKFmdr53kBDKImlH4FjyOCY8dOZy4BM5n0SY7WpTSfsDtxLFv21WBn4t6dhi97MQsiVpAUk/JJ2oGcW/XXYAbpO0p3eQXmU3AlDM9f8P8FHvLKFydwB7m9kk7yAhdEvSmqS95zfxzhIq91PStEBWawOyagAkvQU4C3iTd5ZQm+nAp8zsFO8gIXRK0n7AccSjfYPkLmCfnA4aymYKQNIhwB+I4j9oFgN+KekXkhb1DhPCaCQtIulE0umYUfwHy/rAzZI+4h2kU40fASgOwzgO2Nc7S3B3D6nDvtM7SAhzk7Q+aYQynusPp5MWCDZ6O+FGjwBI2pi00C+Kf4C0q+NNkj7hHSSE4YqfyT8QxT8k+wO3FjWssRo7AiBpN+AMYlOfMLJjSVt0zvYOEgaXpHHA0cCnvLOERpoB7NfUx5ob2QAU8/0/AcZ7ZwmN9ivgQDN70TtIGDzFY6qnAdk+BhZqMQv4pJmd4B1kbo2bApD0/4DjieIfxrYXcFmxTiSE2khakrQRTBT/MJbxwPFFbWuUxowAFENpxwCf9M4SsnMHsGMcMRzqIGlF4DLSqu8QuvET4DNNmbpsRAMQQ2mhBA8BO5jZfd5BQntJWpf0yX9V7ywhW+cCBzRh6tK9ASiG0i4AtnENEtrg78DOZvZ/3kFC+0janHRy5bLeWUL2JgK7mtmzniFc1wBIegNwNVH8QzmWA66UtIN3kNAukt4H/C9R/EM5tgGuLmqgG7cRgOI//DrigIxQvpnAnmZ2oXeQkL/isJeziIXJoXwPAe/0Wr/k0gAUw/5XAxvU/uZhULwAvNvMrvMOEvIlaRvSnH+cTBmqciewtcd0QO1TAMWCvwuI4h+qtTBwoaQ3ewcJeZK0AeleFcU/VGkD4AKP489rbQCKR/1OI+b8Qz2WJu0TsIp3kJAXSasBlwJLemcJA2Eb4LSiRtam7hGAY4hH/UK9VgYul7SMd5CQB0nLkob9V/TOEgbKnqQaWZvaGoBiF6TY5Cd4WA+4SNIi3kFCsxU/IxcD63hnCQPpk3XuGFjLIsBib//jK3+jEEZ3MbCbmb3sHSQ0j6T5SHP+O3lnCQPv43WcHVD5CEBxqt9Pqn6fEDqwM9C4AzlCY5xAFP/QDD8pamelKm0AirOQzyCenw3N8SFJX/UOEZpF0peBD3nnCKEwHjijqKGVqWwKQNLiwK3AhEreIITezQK2NbNrvYMEf5LeCVwFzOccJYS53Q9sZGbTqnjxKkcAfkoU/9BMQ911bOs64IqnQ84gin9opglUOIVeyQiApI8AJ5b+woPhJWAqMG2ur+mkDUkWn+trCWBRl6T5u8jM3u8dIviR9BsgfgZ68xwj36teBBZj5HvVAi5J8/dhM/tF2S9aegMgaT3gZiAeuZo3AyYB95CGeO4b9jXZuvxLkbQ0sNYIX+sDC5UXu5X+xcz+2ztEqJ+kzwM/9M7RcDOAu3j1Peo+4D4z+0c3LyRJpH05ht+jJgDrAmsDKi926zwHbGxm95b5oqU2AJIWAv5AKjzhFbOBO0jnH0wErjGzp6p+02JryU1Ju0xtA2xOjBbMbSbpMI44QniASHo76TCy+b2zNMxzwA2k+9RE4A91nFsv6XXAVqT71NbAW3E+rbaBbgfeUebfR9kNwE+AT5T2gnmbDpwPnANM9D73GUDS/MDGwK7AvsDqroGa40HSQhv3v6NQveIwstuIk0iHPAycSdoD4RYzm+kbZ87f0TbAB4DdSFMKAY42s8+W9WKlNQDFkZm/KuXF8vUicAlpUdFFZvaCc55RSXoHqRHYG3A9l7oBzjGzvb1DhOpJOgfYyzuHs78CZwNnmtmN3mFGI2lh4H3AfqR9Ggb9cKbdzOyCMl6olAZA0uqkjnqpvl8sT/cCPwDOzvFTZHEAxbbAYaQLbVDn4mrZfSv4GfBdSQ24EPgRcJWZzXbO07ViZGBv4AsM7nbNzwBvNbPJ/b5QWQ3AZcAOfb9Qfv4AHAmcn+PFNJLi+NwjSN32oD0aNQVY28z+7h0klK+YZ55EOiVykMwETge+a2Z/9g5ThuJDy26ke9WmznE8lPIEU9+LLCTtyuAV/98C7zKzzczsvLYUfwAz+5OZHURanXsM0OhpjJItBXzHO0SozLcZrOL/HHAUsKaZfagtxR/AzGYX997NgHeR7smD5H2Sdu73RfoaAShW/f+ZwVlMcydwqJld7R2kLpJWBL4LHOCdpSYGbG5mN3kHCeUpVv3fyGCsLDfgFOBwM3vSO0xdJG0NHA1s4J2lJg8Ab+7nqYB+L4bDGYziPwU4lLRSfGCKP4CZPW5mB5Ie0bndO08NBBxbDDGGFiiePz+GwSj+t5Ieaz14kIo/QHFv3oh0r57iHKcOawJf7OcFeh4BkLQacDewcD8BGs5IOxp+NeaF58y7fRz4BtD2bXT/2cwGdbFYq0j6KPAz7xwVexr4GnBCm6YkeyVpOeBbwEdp96Lm54F1zeyxXr65nwbgV8CePX1zHh4CDjCzG7yDNE2xf/oJwB7eWSr0NGlB4DPeQULvJC1FWvi3nHeWCp0HHBI/q68laXPgNNo9Uv0rM/tAL9/Y05CYpH+i3cX/HGDDKP4jM7NnzGxP4FOkrULbaFngm94hQt/+i/YW/xnAp8xszyj+Iyvu4RuS7ulttZek7Xv5xq5HAIrd5O4A1uvlDRvuBeCwGPrtnKQNgLNI+3m3zWzg7WZ2q3eQ0L3iZ/NW0umPbXMPsI+Z3ekdJBeSPk56KqKN09Z/Ju0N8HI339TLCMChtLP4/wnYNIp/d4ob0MbASd5ZKjCOtGlKyNMPaWfxP4l0MEwU/y4U9/ZNSff6tnkT0PUWwV2NAEhaHHiU9u34dynwATN7zjtIziQdSuqw27baejszu8o7ROhcsc1126bwZgOfM7NjvIPkTNKipG3r3+udpWRTgFXNbFqn39DtjfrjtK/4nwzsEsW/f2Z2NGkHwZe8s5Tsy94BQte+4h2gZC+Shvyj+PepuNfvQtoroU2WItXojnU8AiBpAdKpaSt1n6uxvm1mX/UO0TaS3gX8GljCO0uJNjKz27xDhLEV21nfRXse/3oW2NXMJnoHaZNif4jv0uez9A3zF+CNZtbRh7BuRgAOoD3FfzZpR78o/hUws9+TjvJ8wjtLiY7wDhA69mXaU/z/AmwVxb98lnyJdLBQOcfi+luJLnZt7WgEoOiU/kQ7Fv/NBg40szO8g7SdpDcCVwCrO0cpwyzShhv3ewcJ81acTHof7TjI6n5gezN71DtI20k6mLS4sg2N492kLYLHLO6djgDsQjuKP6RFNFH8a2BmD5KOGX7YN0kpxgNf8g4RxvQl2lP8t4viXw8zO5n2TAWsR6rZY+p0BOB6YPM+QzVBzPk7KLaNvor8RwJeBNYws796BwmvJWl5UrO5kHOUfg0V/77Pew/dkfQ92tEI3GBmW4z1m8YcAShOWGpD8T85ir8PM3uEdowELAgc5h0izNNhRPEP/TmcdjwdsHlRu0c15giApIuBncpK5eRS0qN+Xe2SFMolaVXSSEDO+3JPJT1r+6x3kPAKSYuRFszl/ORJFP8GKHa7/Q357xNwiZntPNpvGHUEQNJ65F/8/0Ta5CeKv7NiPnNb0kFLuVoC6OngjVCpPYjiH0pgZjOBvch/x8Cdiho+T2NNAXywxDAeXgD2jU1+mqMlTcCB3gHCa3T86FMDRfFvmKJm7EuqITkbtYaPOgUg6UHyHq6NM90bqpgOuBJ4o3eWHhiwWq9ncIdySVoBmEye+/5H8W+w4gCh47xz9OEhM5vnPXaeIwDFXto5F/9zovg317CRgAedo/RCwP7eIcIc+xHFP1SgqCE5HyW8RlHLRzTaFMB+FYSpy0PAId4hwuiKT9DbkmcTkPOQc9vkOCUTxT8fh5D3lOU8a/mIUwCSxpOG1FaoMFRVZgNbmlnbTgJrLUmrkKYD1vTO0qW3xpGsvopFTn/2ztGlKP6ZkbQ5cB157hT4BLCymc2a+1/MawRgO/Is/gAnRvHPy7CRgAeco3QrRgH85fZ3EMU/Q0VNOdE7R49WINX015hXA5Dr8P8ztO8Y0IFQ3BC3Ja8mYP/inIzgoPizz6kBiOKft68CU7xD9GjEmv6aBqA49nePyuNU42tm9rR3iNCbYU1ALgfurEw69TD4eCf5bC8dxT9zZvZ34OveOXq0R1HbX2WkEYAdgaWqz1O6W4BY9Z+54ga5FXCbd5YOxaZAfnbzDtCh20hH+kbxz99PgBzX/SxFqu2vMlIDsGf1WUpnwKfNbLZ3kKpI2rJYnNl6ZvYE6ZP1/3pn6cCIc2uhFjn82f8W2Lr4mW49SeMlbemdoyrFQrpDvXP06DW1faQGYNvqc5TuQjO7yTtEVSQdQNpD/5cD1ARMI21Dfbp3ljGsV5xCF2okaWngbd45xnAy8D4zm+4dpA7FvemXwFXFPauVzOxqUmOXm23n/gevagAkrQ6sUk+WUn3XO0BVigvpZNJGJ/szWE3ATNIz3t/3zjKGbb0DDKCt6eA0U0ffNLMPFT/DrTes+O9Puled3OYmgDxrzipFjZ9j7gtozOMDG+h6M7vOO0QV5ir+Q/YHThmgJsDM7EvA50lTPU2Uw1B02zT1z3wW8Ekz+1fvIHWZq/gPaXUTYGZXALd65+jBq2r83A1Ajiuac+zExiTpQNJFNVKh348BagIAzOwo0n/3S95ZRtDUYtRmTfwzfwHYw8x+6h2kLvMo/kNa3QSQZ+15VY1/1U6Aku4DJtSdqA/3AG+y0U40ylBR/E9m7CHOM4EDR9rhqa0kbQecT/OOfl3JzB73DjEIJL0O+BvN2pXtKeD9Znajd5C6FMX/FMbeN2YWcLCZnVZ9qvoU//2TyOtAs/vNbK2h/zOnwEhakbyKP8APB7j4Qzqu8tQBGwm4kjSM1bRiu613gAGyDc0q/g8C74ziP0+tHAkoPngd5Z2jSxOKWg+8usjkNv8/AzjLO0SZuiz+Q/YFThuwJuAOYAvSCFBTNHFIuq2a9Gd9C7CFmU3yDlKXLov/kFY2AaSnlHJb6Dmn1ufcAFxkZlO9Q5Slx+I/ZB8Grwl4hLQT3O+9sxS29Q4wQJrSAFwAbGtmT3oHqUuPxX9I65qAYufZy71zdGnEBiC3BYBNfz68Y5I+SO/Ff8g+wOmS5isnVfOZ2TPAu4HD8V8cOKF4Nj1USNKCwLrOMaYDHzez3QblGX/ou/gPaV0TQH61aE6tl5khaQnSIQdNmlcbzRRgBTN70TtIv4ri/wvKe6b5bOAAM3u5pNfLgqS3kS7E9RxjbD5I88AeJK2P71as1wMHmVlOh1b1rSj+p5KmHMvQmoWBkhYhLUpd1DtLhwxYysymDhWdtcmn+AOcG8V/nvYmTQcMzEgAgJndDmwMHOsYw/uT6SDwavBmAl8jbesbxb9/rRkJMLPnSU8m5UKkmj+n8Kw179/bSGd7B+hXRcV/yN4M2HQAgJm9YGafAXYGPOZlowGonsef8Z+Bd5jZtwbpkVuorPgPaU0TQH41aS3IswF4Gch65z9JB1Fd8R/yAQawCQAws0uA9YELa37rdWp+v0FU5wiAAT8CNjazHHd960vFxX9IW5qAiUBOh9Fl2wDcambPeYfoVVH8T6Kefcw/AJwxoE3A381sF+CTwPM1vW2MAFSvrj/jycC7zewwM5tR03s2RlH8T6Pa4j8k+ybAzJ4F7vDO0YVsG4BrvAP0qubiP2QvBrQJACi2Zd2I9Lx21dYc1D/nOkgS9YyynA6sX+z3PnCGFf99anzb7JsA4GrvAF3ItgHI6Q95DqfiP2Qv4MxBLU5mdi+wOfBt0hRSVeYnr21Bc7MasHCFr/8ksK+ZHWBmUyp8n8ZyKv5Dcm8CJnoH6EJqACQtAyzjHKZTBlzrHaJbzsV/yJ4MdhMw08y+CrwZ+HWFbxXrAKpT1fz/dODfgQlm1qrdRbvhXPyH5NwEXENzTyyd2zKSlhlH8ThAJu4tNn/JhqSD8S/+Q/YEzhrUJgDAzCaZ2R7AVsBNFbxFrAOoTtnN1UzSY6Nrmtl/DNKmPnMriv/p+Bb/IVk2AWb2FOlwoFysPY68hv+btPf7mIri/3OaUfyH7EFqAub3DuLJzK41s3eQbngPlvjSK5X4WuHVXl/S6xjpsa03mdlnzOxvJb1ulooPBKeTHh9uiiybAPKqUWuNA9bwTtGFbLqrhhb/IdEEFMzsbNLQ8ueBMkaXlirhNcLIythq+ffApma2j5ndX8LrZa0o/qfRrOI/JMcmIKefqTXGAUt6p+hCFg1Aw4v/kN2JJgAAM3vJzI4C1gS+D/Szy2Q0ANXp58/2DmBHM9vezG4uK1DOGl78h+TWBNznHaALS44DFvNO0YXGNwCSPkTzi/+QaAKGMbMpZvYl0jz+6fS2oCcagOr0MgLwCHAQsJGZXVZynmxlUvyH5NQE5NQALDYOWNw7RRca3QAUxf9E8ij+Q3YHzo4m4BVm9rCZHQBsClxMdzt8RQNQnW4agD8BnwbWMbNTzCynXdoq1dA5/7Hk0gTk1AAsntMIwPQmn7udafEfshvRBLyGmd1sZu8jLZT9Hp2tEYgGoDpjNQAzgbOAbczsLWb24zYcGlamYcX/A95ZepBDEzCZ9HOYg6xGAJ71DjAvmRf/IbsB50QT8Fpm9qCZHU5a4f8RRt9VMBqA6syrAXgU+FdgFTPb18yy3CysapkX/yGNbgLMzICp3jk6lNcIgHeAkUj6MPkX/yG7Ek3APJnZDDM7ycw2Ad4BnMJrFwwuIakNPwtNNLy5MuAy0s/sG83sm00eIfTWkuI/pNFNAA2tVSPIagSgcQcAFcX/Z7Sj+A/ZFfhVNAGjM7ObzOwgYGXgK6TFZpDO2l7CLVhLSVocmA94mvSkxlpmtqOZ/WbQjujtVlH8z6AdxX9Ik5uAxtWqeYgRgF61tPgP2YXUBCzgHaTpzOwpM/sO6QyAXYHfEg1AFcYBBwMrm9mXzOwB70A5GFb89/LOUoGmNgGNqlWjWEykufUcbliXmNnO3iGg9cV/uMuAvXI+fjmEQSVpYeBMUkPfZrOAg83sNO8gAJKuAN7lnaMDU8cBi3qn6FBdZ7qPStL2DEbxB3gvcIWkZb2DhBA6J2lp4He0v/jDKyMBW3oHKTSiVnVg0XH0t+tZnRbyDlCYCJznHaJGmwHXSVrNO0gIYWySViadTPdO7yw1Ogu4wTtEIZep0xfHkc98RSMWK5rZy8B+wK+8s9RoHeB6SW/xDhJCmDdJ6wHXk469HhSnAwc1aDFoLuvqpo0Dpnmn6FAjGgB4VRNwrneWGq0IXCNpK+8gIYTXkrQ5cC2wineWGjWt+EM+DcD0GAHoUdEE7MtgNQFLAb+VtKt3kBDCKyS9D7gCWMY7S42aWPwhn3V1MQLQjwFtAhYCzpV0iHeQEAJI+ghwPrCwd5YanUEziz/ECEAlGtcAwMA2AeOB4yX9q3eQEAaZpK+SdiId752lRmcAH2xo8Yd8GoCsRgAWldTI4a1hTcAgPR0A8F+Sjomtb0Ool6Rxkv4H+KZ3lpo1uvgXj1/mMgWQ1QgApFPZGqloAvZh8JqATwNnSlrQO0gIg6DYofMM4FDvLDVrdPEvNLZGjSCrEQCACd4BRjPATcAHgEsl5bCjZAjZKs5EuBTY2ztLzXIo/pBXAzA9twag8X+4AzwdsB1wlaQVvIOE0EbFtTWRPLaZLdOZ5FH8IYMaNcy0ccBfvFN0IYs/XDObyWA2ARsCt0n6J+8gIbRJcU3dRrrGBsmZwIGZFH/IpEYVJo8D7vNO0YVs/nCHNQG/9s5SsxWAyyV9qziJLITQI0nzSfoWcDnp2hokuRV/yKhGAfcJWA142DlIp2YAS5lZLucXIGl+0j7Vu3tncXA9sJ+ZPeodJITcSFqVNPe9hXcWB9kV/2Ih9BSac27NWFYbBzxGXgcCbeodohvFSMA+DN5IAKQb1+2S9vAOEkJOimvmdgaz+J9FZsW/sCn5FP8ZwORxZjYbeMA7TRe28Q7QrQFvApYm7Rx4rKRcLo4QXEhaSNKxpI3FlvbO4+As4IAMiz/kVZseMLPZQxu45LQOIKc/5DmGNQHne2dx8ingJknregcJoYmKa+Mm0rUyiHIu/pBXbboPIMcGYPNiXj07RROwN4PbBGwA3CzpQ95BQmiS4pq4mXSNDKKsi39Rkzb3ztGFbBuARYGNvUP0KpoAFgVOknRqsalJCANL0uKSTgVOIp8tZMt2NhkX/8LG5PX396oGYJJjkF5kfRxtNAEAHADcKmkj7yAheCh+9m8lXQuD6mxg/8yLP8Bu3gG6lO0IAKTn67MWTQCQtna+QdLnvIOEUKfiZ/4GGr69ecXa8MkfSSK/mvRKA2BmfwH+5hqnO6tLeod3iH4NawIu8M7iaAHgKEkTJQ3q/GcYEJI2kDQROIr0sz+ohor/y95BSrAFaT+dXPytqPkMP8b1Gqcwvcqt4xpR0QR8gMFuAgC2Jk0JHF0cqRlCa0haWtLRpCH/rb3zOGtT8QfY3ztAl+bU+uENwESHIP3Yuy3n0EcTMMd44DPAJEkfa8vfbxhcksZJ+hhpndVnSD/jg+wcWlT8i+3OczuZcU6tH36DvdohSD/eAGzrHaIs0QS8yuuAE0j7BmzmHSaEXhQ/uzeRfpZf5xynCc4hLfhrRfEvvIf8/m7n1PrhDcBdpH2Mc3KYd4AyDWsCfuOdpSE2IS0S/Lmk13uHCaETkl4v6eekRX6beOdpiDYWf4DcFjBPIdV6YFgDUGwJnNs6gPdJerN3iDIVTcBeRBMwRMCHSdMCn4sTBkNTFSf3fY403P9h0s9uaGnxl/Q20ghATq4paj3w6hEAyG8aQMAR3iHKFk3AiJYkrZy+XdJ23mFCGK74mbyd9DO6pHOcJvkVLSz+hcO9A/TgVTV+7gYgt4WAAPtJyukRjI7EdMA8vRn4vaSzJK3iHSYMNkmrSDoL+D3pZzO84lek48BbV/wlrUF+i/9grho/dwNwGzC9viylmA/4oneIKpjZS6Qm4DLvLA20N3CPpK9LWsI7TBgskpaQ9HXgHvIsBFW7gJYW/8IXyO+JjumkGj+HzOxVv0PS5eQ3r/ECMMHMHvcOUgVJiwJXALEifmRTgZ8CR5nZX73DhPaS9AbS4uNPANF4juxa4N1mNsM7SBUkrQjcDyzsnaVLvzWzHYb/g5Ges764pjBlWhj4rneIqpjZc8DOwL3eWRpqCdJ83EOSTpC0jneg0C6S1pF0AvAQ6Wctiv/I/gi8v63Fv/Bd8iv+MEJtH2kEYAVgMvkNbwBsZWbXeoeoSrHW4XpgRe8sDTebNAR5pJnd5B0m5Kt4lv8I0gFksTHV6B4FthjaZraNJG1Jfk/LAcwCVjKzJ4f/w9f8QJvZE8CVdaUq2dFt3j3OzB4BdiC//RrqNg7YHbhR0lWSdvQOFPIiaUdJVwE3kn6WWntfKcnTwHtaXvzHAUd75+jRlXMXf5j3D/UZFYepytuAj3uHqJKZ/RHYBWjzEFuZtgEukXSnpANjH4EwL8Vz/AdKuhO4hPSzE8b2HLCzmbV9ivLjpBqTo9NH+oevFCFDUgAAIABJREFUmQIAkLQU8CR5nlb1NLC2mT3jHaRKknYFziXPqRpPjwI/AE4s1laEAVcssv0oaWX3qs5xcvMysIuZXeodpEqSliFt8LSsd5YevAgsb2bPzv0vRhwBMLMpQK5/ocuS9t5uNTO7APikd44MrQr8CHhE0n9KWt03TvAiaXVJ/wk8QvqZiOLfHQM+0vbiXziBPIs/wCUjFX8YfV4r12kAgD0ktb44mtkJwNe9c2RqWdKf3UOSrpP0mThvoP2Kffo/I+k60or+r5Pvjd3b4WZ2ineIqhW1ZA/vHH2YZy0fcQoAQNIipGmAxSoKVbUZwGZmdqd3kKpJOgb4tHeOFphF2m/hdODXZjbVOU8oQbFR1O6kc9u3J6bNyvADM2vlBmzDSdqAdKLjQt5ZejSNNPz/wkj/cp4NAICk00gXTa7uATY2s+e9g1SpWJ16JmnXwFCOGaTnZk8nDaHFosuMSFoI2Il0/9qZfG/gTXQqcJCNVjxaoPgQfAuwrneWPpxiZgfN61+O1QDsDFxURaoanWRmH/EOUTVJC5LWbcRBOeWbCpxHagZ+b2aznPOEEUgaT/qEvx9pyDY26ynfZaRFfzO9g1StONL5w945+rSjmc1zK/mxGoBxpN3nJlQQrE6fNbNcn9/sWDHUeRWwoXOUNnsSOBs4w8xu8A4TQNLmpKK/N7C8c5w2+wPwrkF4ekbSZ0kLQ3N2L/Cm4cf/zm3UBgBA0seB40oOVrfZpIMpzvYOUrViJ8fbgBW8swyAyaSG62pgoplN8o0zGCStTXpGf2tgW2Bl10CDYTKwoZk95R2kapL2JY32yTtLnz5mZieO9hs6aQAWBB4m/4LyEmk45PfeQaom6Z+Ay4ndy+r2BKkZuJp07Oaf2j5PWjVJIh2zO1Twtyb/e1FuZgHbmVmOW+B2RdK7SWt/5vfO0qfHgTWKE2XnacwGAEDSl4FvlxTM01RgGzO73TtI1SR9C/iKd44B9zRp3/ChhuCOWD8wumIe/628UvC3Ih7T8/ZvZvaf3iGqJmkT0jb4uT75NtyXzOz7Y/2mThuAJUk7qLVhUc0TwDvN7EHvIFUqtrydCGzhnSXMMZV0VOpQQ3DLICymGo2k+YGNeaXgb0k77jNtcRWw/WjzyG1QTCtdCyznnaUEzwKrmNm0sX5jRw0AgKTvAl/qM1hTPAxsWxyu01qSVgVuB5b2zhJG9BLwIHDfCF+PtWX6oFhMvDKw1ghfbyTPLccHwVPAW83sce8gVZK0JqnRactakm+b2Vc7+Y3dNAArknbOasvF+jCD0QTsQTozIORlBvAAIzcHjzetOSjm6ldi3kU+nsPPiwHvM7NLvINUSdIbScV/FecoZZkBrD7SyX8j6bgBAJD0M9KhGW3xMIPRBBwLfMo7RyjN88D9pAbhH8B00o5f0+f6mvufTQOmz2tjrGLjk8VJc6BDX3P//7n/2TLAmqRHhRcu/b80ePmhmX3BO0SVJK1BKv5tOgPiODP7RKe/udsGYB3gz7RrdfnDpIWBj3oHqUqxK9pNwAbeWUIjzCYd4Tq9+P+LAYvSrus69O5mYIs2r08pDgGbSLuK/2xgHTO7v9Nv6OqCL857PrPbVA23OnBVMV/eSsU2tvuQbvohjCN9in9D8bU4UfxDMhXYt+XFfzXa98kf4NRuij90OQIAIGkl0h77bXhUYriHSNMBbR4J+BBwkneOEEJj7WdmbfuQN0fxQW8i6YNfm0wD1jazJ7r5pq67fjP7C/CNbr8vA2vQ/pGAXwCneecIITTSiS0v/quQPvmv7pukEv/RbfGHHkYAACQtANwFrN31Nzffg6SRgMe8g1RB0uLAreR/vkMIoTx/Bt7e1pNThxX/NzpHqcLdpMc1u5626Wner9he8LO9fG8G3kgaCWjLYyGvUmwOsQ/pGfQQQpgB7NPi4r8yaYe/NhZ/gM/1umaj54U/ZnY5cH6v399wbW8CbgUO984RQmiEw8zsj94hqlCsWbuS9KhqG51nZr/r9Zt7mgKY883pUYq7ae8mHw+QpgMmewepgqSJpO1XQwiD6Xdm9h7vEFUoNq+7irQZVRu9AKzXzz42fT36Y2YPA9/p5zUabk3SSEBbtoic26Gkk75CCINnJi2dypX0BtIn/7YWf4Dv9LuJXRnP/h5J2kynrVrbBJjZncCPvXOEEFz8yMzu8Q5RtmHFv42L1Ic8BHy33xfpawpgzotIO5LOUFbfL9Zc9wNb9fKoRZNJWgqYRDtOwQohdOavpF3jxjwxLieSliOdtrmud5YKGbCzmV3a7wuVsvtXEeSoMl6rwSYAF0tq1QZIZjYF+Ip3jhBCrQ5vYfFfFLiIdhd/gKPKKP5Q0ggAzNkb4Dpgk1JesLkuJ52S9bJ3kLIUJ7ndCGzqnSWEULnrzGxL7xBlkjQfcAGwk3eWit0MvLN4FL9vpe3/XQTal7QlYZvtABzvHaJMxdGynyENLYUQ2ms26Vpvm+Npf/GfRjqnobQ9XEo9AMTMHgD+uczXbKgPS/oP7xBlMrP/A37unSOEUKnjzOx27xBlkvQN4MPeOWrwz0WNLU1pUwCvelHpROAjpb9w8xxiZj/zDlGWYgHNJGAp7ywhhNI9TTow5hnvIGWR9EkG40mmn5vZR8t+0aqOAD2UtEFQ2/1UUmuGnczs78DXvXOEECrxtZYV/92BY7xz1OBuUk0tXSUjAACS1gf+QHt3CRzyHGm3wJu9g5RB0njSYUEbeGcJIZTmVtJhP7O9g5RB0pbA72h/fZkBbGpmd1Xx4lWNAFAE/nxVr98gi5IeD2zFQRNmNouKus0QggsDDm1R8X8T8BvaX/wBPl9V8YcKGwAAM/spcGyV79EQrwcuk/Q67yBlMLOrgdO9c4QQSnGKmV3vHaIMxeE+lwFLe2epwY+LGlqZyqYA5ryBNA44C9ir0jdqhhuBd5nZC95B+lUcpHEv0KqNj0IYMFNJO/5lv4NpsWvpNcBbvLPU4Fxg76pHbSodAQAo/gMOJJ3K1HbvAE7yDlEGM3sc+KZ3jhBCX77RkuIv4EwGo/hPBA6oY8qm8hGAOW8kLUHao/mttbyhr4PN7JfeIfolaXHgUeKxwBBy9Aywqpk95x2kX5IOA/7bO0cN7iKdOfNsHW9W+QjAEDObCuxIOsWo7Y6WtJp3iH4Ve4X/xDtHCKEnx7ak+K9Pu4+dH/Io8N66ij/UOAIw5w2ltUhnBrT99LmJpPUAWa+8lbQC6bjnBZ2jhBA69wKwWrG3R7YkLQT8H+0f+n8a2LLu45lrGwEYYmb3ATuTnp9vs22AL3iH6Fcxf5j9dEYIA+ak3It/4Tu0v/g/D7y/7uIPDiMAc95Y2gG4EJjfJUA9XiJtvnGnd5B+SFqbtBtV7Q1jCKFrs0hb/j7oHaQfRY24FJB3lgrNAnYzs4s83tzthm5mlwN7koaq2moB4DRJWQ+fm9kk4HzvHCGEjpzbguL/OuAXtLv4vwjs41X8wfkTnZldCLwHmOKZo2JvoR2P033XO0AIoSNtuFZ/BqzgHaJCz5IW/J3rGcJtCuBVIaS3kHZ3Wsk7S0UM2N7MrvQO0g9JE4GtvXOEEObpCjP7J+8Q/ZD0ceA47xwV+iup+LtPDTeiAQAoHpu7HFjHO0tFHgPWr/MRj7IVJx9e7J0jhDBPO5jZb71D9ErSOqSDixbxzlKRe0l/R494B4EGLeoq/kC2JJ0g2EarkP+5CJcCf/QOEUIY0e2ZF//5gdNob/G/ifSoXyOKPzSoAQAws6eAd5FGAtroAEl7e4folaXhou955wghjCj3a/M/gI29Q1TkEtK+ME95BxmuMVMAwxWd4C+A/Z2jVOFJYIKZTfcO0ovi7+YB0ohGCKEZHgbWMrOXvYP0onjU+E/AfN5ZKnAy8LEm/t00agRgiJnNJB0g9G+k5yTbZHngX7xD9Kr4uznKO0cI4VV+2MQC04Xv0L7iPwv4mpl9qKl/N40cARhO0jaks+lX9M5SomnAmrnu1CVpMdKixjgkKAR/T5MO/XneO0gvJG1JOua3TSYD+5nZtd5BRtPIEYDhzGwi6QTBS7yzlGhx4OveIXpVTF/EIUEhNMOxuRb/wve9A5TsIuBtTS/+kMEIwJDiPOgvAN+iHdsHvwSsa2ZZno5YHOo0yTtHCIE1zOxh7xC9KBZFn+WdoyQzgSPMLJtji7NpAIZI2gw4E1jdOUoZTjezA7xD9ErS/wGbeOcIYYDdYGZbeIfohaQFSGeMvNE7SwkeBPY1s//zDtKNxk8BzM3MbgI2BFy3UCzJfpI29A7Rh9O9A4Qw4HK+Bj9FO4r/OcBGuRV/yHAEYDhJhwBHAkt7Z+nDb81sB+8QvZC0ImkxYHaNZAgtMAtY0cz+5h2kW5KWIj1OvIx3lj5MAQ43sxO8g/Qq6xt38Qe/NungiNnOcXr1Hknv8g7RCzN7HJjonSOEAXVFjsW/8DXyLf4G/Jx05HK2xR8ybwAg7R5oZocA7yDfbYSPLBY55ijnIcgQcpbltSdpdeBQ5xi9ugXY3Mw+mutj3MNl3wAMKeZf3gF8DMjtL2YT4APeIXp0LumJhhBCfWYAv/YO0aNvAgt6h+jS08A/A5sW69BaoTUNAKS96s3sRNK0wDHktYvgNyVltxOWmf2DdJRzCKE+F5vZVO8Q3ZK0CbCfd44uzAZ+ShruP97Mcp1qHlGrGoAhZjbFzA4FNgKu8M7ToQnAQd4henSGd4AQBkyWw//AvwO5THdeC7zdzD5pZs94h6lC1k8BdErSO4CvAO+n2T98t5pZdqdhSVqEdMjRYt5ZQhgAU4HlzWyGd5BuSFoDuJ/mf/C8HPiOmV3lHaRqTf+LKIWZ3WhmuwLrA6cCjTyYAdhI0qbeIbpVbEN6gXeOEAbEebkV/8InaG7NmUXakXAjM3vvIBR/aO5fRiXM7E9m9kFgLeDHpIU0TfMp7wA9immAEOqR3bUmaUHgo945RvAicDxpW/Z9zew270B1GogpgHmRtDxwGKnoLuEcZ8gMYKXc5pwkzQ/8FVjWO0sILfYk6f6Q0wJnJB0EnOydY5ippMV9R5nZX73DeBmoEYC5mdmTZvYVYCXgYOC3+D85sBDwYecMXTOzmcCvvHOE0HJn51b8C00Y2TTSxmWHkI5PPmKQiz8M+AjASCStQHpM5UDSUwQe7ic9dpLVX46krYmdAUOo0hZmdoN3iG5I2hi42THCXcBppMPXHnPM0TjRAIxC0nrAAcXX6jW//Q5m9tua37MvxW6GfwWW984SQgtNNrNVvEN0S9KJwEdqftvJpEclTzOzO2t+72xEA9CBorC9E9gN2A54G9VPn5xvZrtX/B6lk3QWsLd3jhBa6NRiEXM2JC0N/AVYuIa3uxu4knQ638TcRlA9ZLfznIfiB+na4mvoh3prUjOwHenxwrL3F3i/pFUyHLKaSDQAIVThau8APfgw1RX/SaSCfyVwlZk9WdH7tFaMAJRA0uuAbXilIViXckYIvmFmXy/hdWoj6S2kObcQQrnWMbNJ3iE6VYycTiLtclqG+4GreKXgP17S6w6saAAqUDzzujawHqkZGPp1Hbrrhp8grVadWXrIihQX/d+JxwFDKNMTZvYG7xDdkLQD3Z8TMhN4ALgHuLf49R7g3uLckVCimAKogJm9SPoU/KpPwkVxXI3UEKwDvB5Yuvhaatj/Hvr/KwC7A2fXlb1fZmaSriGtlwghlCPH4f9PF78a6bn7KfP4+guvFPwHzaypO7W2TowANJikxYFxZvasd5ZuSDoM+G/vHCG0yGfM7FjvEN2QtAowDZjatlP02iJGABrMzKZ5Z+hR7AUQQrmyu6YyXMA8cGIEIJRO0jjgGWBJ7ywhtMDTwHLxWFso20BvBRyqUQz3XeudI4SWuCaKf6hCNAChKtkNWYbQUDkuAAwZiAYgVCVuWiGUI5rpUIlYAxAqIWk+0iM+i3pnCSFjU4FlMj0BMDRcjACEShTP8l7vnSOEzF0bxT9UJRqAUKUYugyhPzGVFioTDUCoUjQAIfQnrqFQmVgDECpTnInwHDDeO0sIGXoJWCyns0BCXmIEIFSmOBPhYe8cIWTqwSj+oUrRAISq3ecdIIRMxbUTKhUNQKhaNueXh9Aw0QCESkUDEKoWN7EQehPXTqhUNAChajECEEJvogEIlYoGIFQtbmIh9CaunVCpeAwwVKo4Gvh5YEHvLCFkZAawSJwCGKoUIwChUsXRwA965wghMw9E8Q9ViwYg1CHWAYTQnRj+D5WLBiDUIW5mIXQnrplQuWgAQh1iBCCE7kQDECoXDUCoQ9zMQuhOXDOhctEAhDrECEAI3YkGIFQuHgMMtZA0HVjUO0cIGXiedApg3JxDpWIEINQlPtGE0Jn7o/iHOkQDEOrygHeAEDIR10qoRTQAoS5TvAOEkIl/eAcIgyEagFCX6d4BQshEXCuhFtEAhLrETS2EzkzzDhAGQzQAoS5xUwuhM9Esh1pEAxDqEje1EDoT10qoRTQAoS5xUwuhM3GthFpEAxDqEje1EDoT10qoRTQAoS5xUwuhM7FeJtQiGoBQl7iphdCZaJZDLaIBCHWJm1oInYlrJdQiGoBQl7iphdCZuFZCLaIBCHWJm1oInYnpslCLaABCXeKmFkJnolkOtVCcOhnqImkW0XSGMJrZZjbeO0QYDHEzDnWKTzYhjO457wBhcEQDEOoUDUAIo4trJNQmGoBQJ3kHCCGEkEQDEOq0uHeAEBpuMe8AYXDEIsBQC0kCZhGjACGMJhYBhtrECECoyyJE8Q9hLOMkLeIdIgyGaABCXWJoM4TOxFRZqEU0AKEucVMLoTPRLIdaRAMQ6hI3tRA6E9dKqEU0AKEucVMLoTNxrYRaRAMQ6hI3tRA6E9NloRbRAIS6xE0thM5EsxxqEQ1AqEvc1ELoTFwroRbRAIS6xE0thM7EtRJqEQ1AqEvc1ELoTFwroRbRAIS6xE0thM7EeplQi2gAQl3iphZCZ6JZDrWIBiDUJW5qIXQmrpVQi2gAQl2W9Q4QQiaW8Q4QBkM0AKEuE7wDhJCJNb0DhMEgM/POEFpO0jjgOWAh7ywhZOAFYFGLm3OoWIwAhDqsQhT/EDq1MLCSd4jQftEAhDqs5R0ghMzENRMqFw1AqEPczELoTlwzoXLRAIQ6xM0shO7ENRMqFw1AqEPczELoTlwzoXLRAIQ6xM0shO7ENRMqF48BhkpJGg88DyzgnSWEjMwgPQo42ztIaK8YAQhVW40o/iF0ayHS47MhVCYagFC1GMoMoTexe2aoVDQAoWrRAITQm7h2QqWiAQhVi5tYCL2JaydUKhqAULW4iYXQm7h2QqWiAQhVi5tYCL2JaydUKh4DDJWRtCAwHZjPO0sIGXoJWMzMZnoHCe0UIwChSpsRxT+EXi0AbOwdIrRXNAChSlt7Bwghc9t4BwjtFQ1AqFI0ACH0J66hUJlYAxAqIWk+4B/AYt5ZQsjYVGAZM5vlHSS0T4wAhKpsRBT/EPq1BPBW7xChnaIBCFWJocsQyhHrAEIlogEIVYkGIIRyxLUUKhFrAELpJAl4GljaO0sILfA0sJzFzTqULEYAQhXWJ4p/CGVZFnizd4jQPtEANJSk8ZKWlrSqd5YexJBlCOXKbh2ApCUlLe6dI8xb7NJWo2Jr3LWAdYH1gJWAJef6Wqr4dWgF/YXALrWH7U80ACGUa2vgWO8QXdoF+KWkl4EppMeCh38N/bO/AfcCdwOPxFRHfWINQAUkLU0q8OvySrFfF1gDGN/ly73XzC4vN2G1JP0VWME7Rwgt8oSZvcE7RDeKDzyTgdd18W0vkJqBe0gNwdCvk8zsxdJDDrhoAEogaUVgW2C74tcJJb30/cDaOXXEktYmXcAhhHKtY2aTvEN0Q9KRwOElvNRsUjNwZfE10cyeKuF1B1pMAfRA0vK8UvC3A9au6K1+klPxL8TwfwjV2AbIqgEAfgp8kf7Xm40D3lR8fRowSXfxSkNwtZn9o8/3GDgxAtCB4rG2bYAPkAr+ejW87QvASrn9UEv6JfBB7xwhtNCpZpbdtSXpYmCnit9mNnA7qRk4H7guww9PtYsGYBSSNgAOAPYHVq757X9uZh+t+T37JulRYBXvHCG00GQzy+7akrQTcHHNb/swcBpwmpndXfN7ZyMagLlIWoVU8A8gPc/uZRMzu8Xx/bsmaXPgeu8cIbTY5mZ2o3eIbkgaR1rPtIZThFuBU4EzzOwJpwyNFPsAMOd51Y9Jugp4BPgOvsX/ptyKf2F/7wAhtNx+3gG6ZWazSWsBvGwE/BCYLOlySQdJioPKGPARAElvAA4DPkE6daspDjazX3qH6Iak8cDjwOu9s4TQYk8AK+d2PLCk15EeCVzQO0thKvBj4Cgze9I7jJeBHAGQNEHSccBDpEdUmlT8nwbO8g7Rg+2J4h9C1VYgPYGUleKRvbO9cwyzBPBl4GFJx0pa3TeOj4FqACRtKOlM0vOkH6c53ehwJ2a64UUM/4dQj1yvtR97BxjBQsCngPsknSJpoM5cGIgpAEnbkrq9HZyjjGU2MMHMHvIO0g1JCwFP0qyRlBDaagqwvJm95B2kW5JuBTb0zjEKI22//u3cFlv2otUjAMUn/mtIz4Y2vfgDXJpb8S/sTBT/EOqyFLCjd4geHeMdYAwinWFwg6T/LR4Fb61WNgDFKXrHAjcDW3rn6ZAB/+4dokfZrUwOIXO5XnO/JD0SmIPtgVslHS1pKe8wVWjVFECxY99HgG8DyznH6dbpZnaAd4huSVqCNPy/kHeWEAbI88Drzew57yDdkrQ3+S10/jvwFdIGba0pmq0ZAZC0MXAD8DPyK/4vAl/zDtGjPYjiH0LdFgF29Q7Ro3NIo7M5WY5UW26U9HbvMGXJvgGQtIyknwB/ADbzztOjo83sYe8QPcp1KDKE3GV57RWfoI/wztGjTUlNwAnF3gZZy3oKQNIHSTs85fwX8QywpplN8Q7SLUmvJ23+M947SwgDaCawgpk94x2kF5IuB97jnaMP/wCOMLMTvIP0KssRAEmLSTqFtKAk5+IP8F85Fv/C3kTxD8HL/MCe3iH68GXS4udcLQ0cL+lXuS4SzK4BkLQh6XCHA72zlOBBmrk5Rqdy3ZAkhLbIchoAwMxuA87wzlGCPYHbJGU3BZ1VAyDpUNJCv7W8s5TkKzlu5gFQbJ25uXOMEAbdNpJW9A7Rh38FsrwHzmV14BpJXyyeRstCFg1AsdDvfOB/aOb2vb24ycyatDd2tz7mHSCEwDjgQ94helVsfHacd46SzA98D7golwWCjV8EKOmdpGGiVbyzlGwrM7vWO0QviqM0HyXNgYUQfD0JrJbpGSJIWg54AFjcO0uJHgf2N7OJ3kFG0+gRAElfBSbSvuL/61yLf+EQoviH0BTLAwd7h+iVmf0d+L53jpKtCFwh6f81eUqgkSMAkuYjbbqQ7Q/1KF4G3mxmk7yD9ELS/KRuvW1NWQg5ux9Yx8xmewfpRTGqeD+pmWmb04EPmdlM7yBza9wIgKRFgAtoZ/EH+F6uxb+wH1H8Q2iaCaRdObNkZtOBz3nnqMj+pHUBi3kHmVujRgCKhRMXke+OfmO5Bdi8iZ1gJ4qhrDuBt3hnCSG8xs1mlvU2tZJOo72PF98M7FRMeTRCYxoASasBlwPreGepyPPARmZ2r3eQXknamdSghRCa6V1mdqV3iF4VG+rcBazsnaUi9wE7NOXY90ZMARRnLt9Ae4s/wOdzLv6Fw70DhBBGlese+wAUu6J+iLx3CBzNWsD1kt7qHQQa0ABI2ha4GniDc5QqXWBmx3uH6IekdwBbe+cIIYxqB0lv8w7RDzO7grTnS1utAFxd1D5Xrg2ApD2By4AlPXNU7AnasWlOfPoPIQ9tuFa/DPzZO0SFlgAuk7SXZwi3NQCS3g/8mnYfJmPAjmZ2uXeQfkhah3Qxuo8YhRDGNAuYkPER4wBI2gi4kbTDXlvNAnY3sws93tzlhi5pC+As2l38Af4n9+Jf+CJR/EPIxXjgC94h+mVmtwL/7p2jYuOBs4qaWLvaRwAkvQm4Blim1jeu3x+Bt5vZDO8g/ZD0BuAh2nMGQwiD4HnS9sBPeQfph6TxpDViLgWyRs+Qtoevddqj1k91klYmzfm3vfi/SNoHOuviX/gcUfxDyM0iwKHeIfplZrOAg4Dp3lkqtgxpTUCtjz/W1gBIWppU/AdhF7kvm9ld3iH6JWkJ4BPeOUIIPfm0pEW9Q/TLzB4A/sU7Rw1WAS4vamUtamkAJC0MXAi8uY73c3Y58CPvECU5jHY/oRFCmy0LfMo7RBnM7ATSFvFt9ybgwqJmVq7yNQDFHM55wC6VvlEz/JE0jzPFO0i/JK0K3APU8oMYQqjEVNIhQU94B+lXsZf+VcDGzlHq8Btgj2IKpDJ1jAD8lMEo/pNJj/xlX/wLPyCKfwi5WwI40jtEGYoDg3YGHvTOUoNdgOOqfpNKRwAkHUq7d3QaMgXY0sz+5B2kDJK2B/7XO0cIoRRGuj9d7x2kDJLWBq4DXuedpQafN7OjqnrxyhqAYjvKG2n/CvIXgfeY2dXeQcogaT7gDtJcVAihHW4lPZY82ztIGYqtyX9P+0cpXwK2MLNbqnjxSqYAipWnZ9H+4j8bOLAtxb9wKFH8Q2ibjYBDvEOUxcxuBPYl7aTXZgsAZ0pavIoXr2oNwLHA2hW9dpMcZma/8g5RFknLA//mnSOEUIlvSmrNHixm9hvgM945ajCBtJaudKU3AJIOBA4u+3Ub6LtmdrR3iJJ9h3jsL4S2Whb4hneIMpnZT4Fveueowf6SPlz2i5a6BkDSBNJcUyXDFQ1yKnCQeZ2kVAFJmwE3APLOEkKozGxgYzO73TtImST9gvZ/8HwO2MTM7inrBUtrACQtAFxP+5/R/B2ws5nN9A5SFknjgJuATbyzhBAqd52ZbekdokyS5gcuAt7jnaVidwKblbXNfJlTAEfS/uJ/G7DmaUhCAAAgAElEQVRnm4p/4SNE8Q9hULyzmKptjeKevCfpHt1mGwA/LOvFShkBkLQjcEn/cRrtftIuf9nvqDWcpKWAScBy3llCCLX5K2mHwGneQcokaQXSabMTvLNUbHczO7/fF+l7BEDSQqRV/232ALBd24p/4T+J4h/CoHkD8P+8Q5StuEdvR/rA1mbHlHHQUxlTAIcDa5TwOk31IKn4T/YOUjZJ69OSw0JCCF37nKR1vUOUrbhXt70JWAn4Wr8v0tcUgKTVgLtp725MDwLbmtlj3kGqIOkqYBvvHCEEN78zs1YunJO0MnAl7Z0OeAl4i5nd1+sL9DsC8EPaW/wfIn3yb2vx/zxR/EMYdO+W9M/eIaowACMBCwB9nRPQ8wiApHcDv+3nzRvsYWAbM3vUO0gVJG1MemRzAe8sIQR3M0jnBPzRO0gVBmAk4P1mdlEv39hTA1A8c3kHsF4vb9pwD5OG/R/xDlKFYk/pW2nvxRBC6N6fSU3A895BqtDyJuAB4M1m9mK339jrFMBnaWfxf4QWF//Cj2nnRRBC6N2baPHR7S2fDlgT+GIv39j1CEDxnOUk2rfd71Dxf9g7SFUkHQz8wjtHCKGx9jOzM71DVKXFIwHPA+t2u2atlxGAI2lf8X+UtODvYe8gVZG0Du3fryGE0J/jJK3pHaIqLR4JWAT4frff1NUIQHHYz71Ud4ywh0dJn/wf8g5SFUkLAjcCb/POEhphNulgkenF/18MWJR2XdehdzcDW7Rwy/M5WjoSYKTHAv/c6TfM1+UbfJF23SQeI33yb23xL3yPKP5t8jzpE8wDwD9IhXxa8evwr7n/2TRg+rwWeklahDS6t9iwr7n//9z/bBnSHOQE2vtI8KDZhHQ0+Be8g1TFzCZL2o52NQEi1eiPdPwNnY4ASFqetEJ+oV6SNdBk0qN+D3oHqZKkXYALvHOErs0gFfj7Rvh6vGlHUUsSaXeytUb4eiPtuW8MCgPeZ2atPuOlhSMBLwFvNLO/dPKbu2kAvgV8pY9gTTKZNOz/gHeQKhU/3HeQPqWF5nmJtNvkSEX+saYV+V4Vx02vzLybg9iPopmeAt5qZo97B6lSC5uA75vZlzr5jR01AMWz448BS/YZrAn+DmxpZpO8g1RJ0njSD/VW3lnCHFOBa4GrgYnALW2eZ+1EsafIxqRdKbcGtgSWcA0VhrsK2N7MZnsHqZKkVUmbo63knaUE04BVzOzZsX5jpw3AF0nzyLmbTprzv9k7SNUk/QctPO0rM0+TjiYdKvh3mNks30jNVjSub+WVhmArYFnXUOHfzOw/vUNUrTgc7Rra8UH3K2b2nbF+05gNgKQFSPvir1hSMC8zgZ3N7HfeQaomaRvg97RrwWYOniAV+6GC/6e2DON7KdYWvJlXGoKtgRVcQw2eWaQPTtd4B6lace+8HFjQO0ufngBWH2t3wE4agI8CPysxmAcD9m/zBhdDJL2etNVvG4aymm4yaYj0amBi26eVmkLS2rzSEGxLWl8QqjUZ2NDMnvIOUjVJewFnkf8HqEPMbNTaPWoDUCze+TOwTsnB6vY5M2vtNpdDirUaVwEbOUdpsyeBs4EzzOwG7zABJG0O7AfsDSzvHKfN/gC8y8ye8w5SNUmfAY72ztGne4E3jbZ+Y6wG4L3ApRUEq9NJZtbxc5G5KqZqLgb+yTtLC00FzgNOB34f8/jNVKwf2J7UDOxBLCaswmXALoOweFXSz4EPe+fo045mdtm8/uVYDcAvgQ9Wkaom9wAbt/WEqyHFPOnpwL7eWVpkBqmhOh24xMxmOOcJXZC0ELATsD+wM7EPQZlOBQ5q+/qWYmOsW4B1vbP04RQzO2he/3KeDYCkhUnDnbnu+z8D2MzM7vQOUjVJRwGf887RArOAK0hF/9dmNtU5TyiBpCWA3UnNwPbAeN9ErfADM+vpBLqcSNoAuIl8G8hpwPJm9sJI/3K0RQ7vI9/iD/AvA1L8jyCKf7+uBw4FVjSzHczs5Cj+7WFmU4u/0x1ITzMdSvo7D737QvF4eKsVNeRfvHP0YXFSLR/RaCMA55G65hydZ2Z7eoeoWhzv25engR8DP2/zKZBh3iStTto3/dPEbpm9MOBgMzvFO0jVJJ1LWleSo1+b2YjZR2wAJC1JGv7P8VnIp4G1zewZ7yBVkrQTaY//bg90GnSPAj8AThyE1cxhbJIWBT5G+qS3qnOc3LxMWhSY+2LxUUlaBphEnptSvUiaBnjNzoDzmgLYgzyLP8DXBqD4bwacQxT/btxFWtC6ppn9TxT/MMTMnjOzH5FONTwI+KNzpJzMB5xT3JNaq6gpX/PO0aMFmcfoxbxGAH5Hno+T3Qq8vc37Vktal7SffI6dqIeJwJFt/4QSylM8VbMTcAT/v707j5azKvM9/n0OSJhBUKCbAGGUBoEGkZkA7WXwKhIhBAIIF1SQVmxspp7WdS112SKoDK2AEYSrZGKKMgYnwpQmCLZEIZBACCQKyhRIGALJ7/6x90kqJ2eqOvXWfvf7Pp+1zopknVP186TqfZ7a7x78LI3BehnYX9KTqYMUJe6L8zB57rPyS0mH9vzLVRqAeOzvAvKbKSvCC7Cym7OY2d8SJi9tlTpLyS0j3B65UNJDqcO4fMVNhi4APkU4b9317Tlgv8EeRZuj+Hp4gPxeC0uBzSW92PiXvd0COI78ij+E9Y5VLv4bEjbh8OLft3cI21bvJOloL/5uqCRNlzSKcB7BjwlHOLvebQncFa9VlRRrTI6THlcj1PaV9DYCMBU4rEOh2mUx4d7uiwN+Z4bipiZTCXufu1W9DlwJXCLpz6nDuOoys82BrwCnk/cy6SLdDxxa1c2z4ij508A6qbM06e64FHa5lUYAzGx1YL+ORmqPqytc/FcHJuDFvzdvEo483kLSBV78XdEkLYgb4GwJfA3odYOVmjsAmBivXZUTa8241DlasF/Pf5OVRgDM7KOEAx9y8h6wnaR5qYO0W0PxH506SwlNBs6V9HzqIK6+zGwr4Lvku0a8SDcCYyW9lzpIu5nZFoRRgPelztKkvSQ93P0fPecAHNThMO0wyYt/rfyRcCLZcV78XWqS5sVNxw4Fnkidp2RGAxOqOBIQrz3jU+dowUo1vmcDkOMw80WpA7SbF/9eLQTOBv5e0m9Sh3GukaRfArsB5xDmpLigsk0A8G3C6rOcrFTjl98CiGscXwZymsE5VdIRqUO0kxf/VYiw3fG/SPpL4izODcjMNgMuJGw8ldtysaJU8naAmf2MsEQ0F68BG3fvldM4ArALeRV/gMtSB2gnL/6r+C2wr6TTvPi7XEh6QdIpwP6E42RddUcCLk0doEkbEmo9sHIDkNvw/0vA3alDtIsX/5W8BHyecJyzr+V3WYprxvcCziC8puuuik3APUBuq4+W1/rGBiC3CYCTqzKc5MV/uaXAfxEOc/pRlbd0dvUgaZmkHwI7AN8nvMbrrFJNQLxGTU6do0nLa33jHIAXgU1SJWrBAZIeSB1iqLz4L3cvcFY8f9u5SjKzXYHLyW/Etd0qMyfAzPYBctqF9i+SNoXYAMTdreYnDtWMecDW6u0ko4x48QfC1qrnx9PYnKsFMzubMFFwjdRZEqpSEzAXGJE6RxOGS1rQfQtg+6RRmjfRi38lzCFM8vPi72pF0iWEXVfnpM6SUJVuB0xMHaBJ28OKOQC5NQBTUgcYCi/+AFwP7CHp0dRBnEtB0iOEo2Vz3FCmXarSBPwsdYAmZdsALCbjpTVe/FkMnCrpJElvpA7jXEqS3pB0IvBZwtkWdVSFJuARwrUtF9k2ANMlvZs6RCu8+PMYsKeka1MHca5MJF0D7AnMTJ0lkaybgFiTcpoImG0DMC11gFZ48ecHhHX9s1IHca6MJD0B7A1clTpLIlk3AeRVm0IDELcA3jZxmGbk9EsGal/8XwWOkfTFqp4P7ly7SHpL0heAMYTzL+om5yYgp9q0rZl1GeFc61xO03sb2FDSO6mDDFbNi/+DhGU+z6UO4lxuzGxrwuzyvVJnSSC7JYJmNoyw1/6aqbMM0lZd5DX8P9OLfxaWAf8JHOTF37nWSJoLHABcTH6nzg1VdiMBsTblNIdj+9wagNmpAwxWjYv/C8Dhkv4tp+7duTKS9K6k84BPAH9NnafDsmsCyKhGERuA4alTNCGLX26Ni//vgN3j2ejOuTaRdCdhz4A/pM7SYbk1AVnUqGh4F7Be6hRNKP0vt8bF/9eEIf8XUgdxrookzQcOBO5LnaXDcmoCSl+jGqzXBaybOkUTSr1tZo2L/2Tg476xj3PFkvQacBiZ74baglyagFLXqB7W9RGANqlx8b+cMFt3SeogztVBXE47Gvhh6iwdlkMTUNoa1YusRgDelPRK6hC9qXHx/3dJX45nYjvnOkTSUklnAF9LnaXDSt0ExBqVy5bAWY0AlHJ4uabFfynwWUnfTB3EuTqT9FXgTMLS27oodRNASWtVL7IaAShdV1XT4v8WMCruXe6cS0zSlcCxQDZ7pLRBmZuAXBqArEYAFqUO0Kimxf8V4GOSbksdxDm3gqSbgcOp1/bBZW0CcmkAshoBKE0DUNPi/zxwgKScTrxyrjYkTQNGAn9KnaWDytgE5NIA+AhAs2pa/P8I7BdPK3POlZSkx4D9gCdTZ+mgsjUBuTQA63UBw1KnGKSyLDPbGxiVOkQHPQAcGDchcc6VnKR5hDMEZqTO0kGjCNfmMsjl1NNhXZRwcl0f1k4dAEDSA8BYoA773P8cOFTSq6mDOOcGT9JLwD8Ad6XO0gHvEfYieSB1kCiX2+qLu8hnuKI0v1RJN1L9JuBG4BhJb6UOkgsze5+ZjTGzDVJnqRoz28LMfm5mh5uZpc6TA0mLgaMIjXxVdRf/G1MHaZDLbfU3uijJvfVBKE0DAMubgBOoZhOQ3VncKcXi9HXgOWAS9VqT3SlvAEcSPtE+ZWb/bGbvT5yp9OIOncdSzSagjMUf8mkAFuU0ArBO6gA9SbqB6jUBN+DFf0AWHGZmtwBzgf8ANgPe8zMRCvE6oPi/twO+Aywws6vN7CPpYpVfbAJGU60moKzFH/JpAHwEYKgq1gTcAJzgxb9vZraRmZ0DPAVMJUw+Wq3hW15LEqzi4nbTr/f467WA04Dfmtl/m9nJZpbLpOaOkvQu1WkCylz8IZ8GIKsRgPXLeu+vIk2AF/9+mNleZnYtsAC4mPAptDc+YbI4/TVXewPXEUYFLjSzrTuUKRsNTcDPUmcZglIX/1ij1k+dY5CyGgF4HzA8dYi+xCbgRPJsArz498LMVjez08zsEeAh4BRgzQF+zBuA4gxmdGVj4HxgjpndZmZ7FpwpK7EJOJY8m4BSF/9oOLBG6hCDlNUIAMD2qQP0R9Jk8msCJuPFfxVmdizwOHA1sEcTP+oNQHGaub3SBXwCmGFm15vZiEISZSjTJiCH4g8lr1E9ZDUCABn8cjNrAiYDJ3rxX8HMDjazhwi/m1Zebz4HoDit/G6NcHtulpldZGYbtjlTljJrAnIp/pBBjWqwqIu8Do/I4pfb0AQsTZ2lH178G5jZLmZ2O/AbYK8hPJSPABRnKM3VMOBc4GkzO9vMchmmLUxDEzAldZZ+5FT8IZMaFS3sIixhykVfE69KJzYBJ1DOJsCLf2RmW5rZdcD/AP+7DQ/pDUBx2jG6shHwPeAJMxvThsfLWmwCxlDOJiC34g8Z1ShgbhcwO3WKJuyYOkAzSjoS4Pf8Wb6c72LCcr6TCfeM2+EvbXoct6oFbXysbYBJcfngAW183OyUtAnIsfhDXjVqdm4NwA5m9oHUIZohaRLlaQImEYp/GbIkYWZrmdkFwNPAObT/MKw6ncLWaUX8bvcG7jOzm81shwIePwslawKyLP6xNuX0GprdJell8hm2NODA1CGaVZImYBJh2L/Oxf8oQsP7LaCoyWB+ZHJxZhX42J8G/mhm3zSz9xX4PKVVkiYgy+IfHUioUTl4VdLL3cOeOY0CHJQ6QCsSNwG1Lv5mtp6ZXUO4sG1e4FO9Bcwr8PHr7hng3QIff3XgX4HpZvahAp+ntBqagFsSPH3OxR/yqk2zYcV9z5wagJGpA7QqNgEn0dkmoO7FfyTwGHBqB57uSUka+NtcK+K8lac78FQfAR41s9M78FylE5uA4+hsE5B78Ye8alO2DcBuOR+3KmkinWsCJlLT4m9mw8zsIsKyvhEdetoih6hd0Kk5FmsDV5nZlNzmHbVDh5uA7It/rEm7pc7RhGwbgC7yGmpZRYeagInASTUt/rsBDxPWfbdrdv9g+P3/4nW6yToKmGlmh3f4eZPrUBOQffGPDqKz15qhyrYBgHCPKmsFNwG1LP5m1hVn+M8AdkkQwUcAipdilcVmwJ1mdomZDXQWRKU0NAE3F/DwVSn+EDZUyslsAJPUPXyR0xami4BNJb2ZOshQmdnxwE9Z+UjZoahr8d8G+H/A/glj7CppZsLnrzwz2xd4MGGEPxCW0tbq3zmujJgIHN2mh6xM8TeztQj7f5TyyPo+bChpYReApIXk9ellXeDI1CHaIY4EfIb2jARMoJ7F/3PA70lb/JcRNhVyxUq9z8KHgYfjdsK5LPkasjgScDztGQmoTPGPPklexX9WrPkr3bOYlihMq05IHaBdJE1g6E3ABOAzdSr+ZraumU0BxpH+DThL0juJM1SepFcIywFTGkbYTvjOOh0u1KbbAVUr/gBjUwdo0vJa39gA3JsgyFAcYWbvTx2iXYbYBNSx+G8K3EOYpFUGv0kdoEbK8rs+nLCL4PDUQTolLsVstQmoXPGPt8/bcYZIJy2v9Tk3AGuQX+fVrxabgDoW/x0I94E/kjpLg7IUpToo0+/6w4SNg3ZOHaRTGpqAm5r4scoV/2gM7d9OvGjLa7017ltiZk8TDsnIxRzgQ5KWpQ7STmY2FvgJA08MrGPx3we4FSjT2mwBm0h6KXWQOjCzzYH5qXP08BpwlKTcPki1zMxWJ0wMPGaAb61k8TezLuBxIKddI5+RtG33f/Rct5jbi3c7Bn7xZSeOBJxM/yMB46lf8f8U8GvKVfwBZnrx7xxJCyjf0uUNgbvNbHTqIJ0SRwKOp/+RgEoW/2gUeRV/6FHjezYAuU0EBDg/dYAiSBpP303AeODkmhX/LxDuO66VOksvyjQkXRdl/J0PIxwxfFbqIJ0yQBNQ5eIPcEHqAC1YqcbnPgIAsKeZ/UPqEEXoowmoY/H/BnAF7dsrod3KWIyqrqy/8y7gMjP7Vl2WCTY0AY2FvtLF38wOAfZKnaMFK9X4leYAAJjZ80Bus1rvllTZrTrN7ATCJjeTqFHxj5uPjANOSZ2lH8uAD0jK5UjtSjCzzYA/p84xgJ8Cp8Xlc5UX5wRMIAyNV7b4A5jZVOCw1DmaNF/SFo1/0VsD8FPCsbW5GSnpvtQhimJmBwDTa1T81yUMK5b9TfaopDKtRqgNM3sC2DF1jgH8AjhG0hupg3RCbAL2lvRA6ixFiSeM5ni7/HpJJzX+RW+HFxSx53MnXG5mZR0iHjJJ99eo+G9GGKoqe/GH8g5F18GvUwcYhEOBafE1XXmS3qt48V8NuDx1jhatUtt7awDuAF4vPkvb7QackTqEG5q4qcp9wO6pswzSlNQBauyG1AEGaXdqtmFQhZ0J7Jo6RAsWArf3/MtVGgBJb9OZM6CL8HUz2zh1CNeaeIH8DWF5Zw6eBSr7aScD0yjffgB92Q64x8y2GPA7XSmZ2QeBr6fO0aJbetuqvK/zi8cXHKYoGwHfSB3CNS/D4g/hnpoG/jZXhPi7z+latS3eBOTsm4T9HnLU6/tklUmAsPw+x5+ATQoOVYRlwD6SHk4dxA1OpsUfYCdJT6QOUWdmtivhJMicPAMcIum51EHc4MRjqB8Aclza+SKweW9zyHodAYjfmMv9tZ66gPFmtl7qIG5gGRf/R734pyfpMWBm6hxN2oYwErBl6iBuYPHAn+vJs/gDTO5rAnlftwAgrOfM1XbAValDuP5lXPwhrPF25XB96gAt2JqwOmCr1EHcgMYR/r1y1Wct7/UWAEDcxepZIOcu9fOSfpQ6hFtV5sV/KTBc0gupgziI99TnkecntGeBgyXNSx3ErcrMTifvD5PPSuqzeelzBCBOsJlYSKTOuaxOx3TmIvPiD/ArL/7lIel58tzGHGAEYSRgRNoYricz+zBwSeocQ9TvSH5/twAgHEmbs7UIh3OskzqICypQ/CHPIeeqy/mWzFaEOQE5DzNXSqwZEynn4WPN6Pd90W8DIOkPwNS2xum8nYEb477yLqGKFP/XyXe3zCq7gTw3MOvmTUBJxFpxI6F25OxOSY/39w0DjQAAXNimMCkdAVxdl9O5yqgixR/gB5IWpQ7hViZpIXBl6hxDtCXhdsA2qYPUVawRVxNqRu4GrN19TgJc6ZvMZgAfbUeixC6WdF7qEHVToeL/NjBC0oupg7hVmdnfAHOBYamzDNHzhImBz6QOUjdmdhFwbuocbTBD0t4DfdNgRgCgGqMAAOea2T+nDlEnFSr+ANd48S8vSX8Grkudow22IIwEbJs6SJ3E2lCF4g/w7cF802BHALqAJ4AdhhiqDAScKqkKF4pSixud/IpqFP/3gO0lPZs6iOubmW0HzAKqcDLofOBjkp5KHaTqzOwU4MfkuZS0p9nAjpKWDfSNgxoBiA908VBTlYQBP/aRgGKZ2S7Ag1Sj+ANM9OJffpLmECZwVcFw4H4z2zN1kCqLtaAqxR/Cre4Biz8McgQAwMyGEe6v/c0QgpXNxcD5fqBLe5nZQcDPgA1SZ2kTAbtI+mPqIG5gZrY78GjqHG20CDha0i9SB6mSOOHv21Rn2B/Cvv9b9XbyX28GOweA+IC5b4rQ07nAdb5EsH3MbDRh6WhVij/ArV788yHpd+S/fLnRusDtZnZ86iBVEa/511Gt4g9w2WCLPzQxAgBgZusTZqiu30KwMrsLGC1pceogOTOzLwGX0kRjmYl9Jf136hBu8MzsYMLk0yoRcLaky1IHyVnc5OdGqrHUr9EbwJaSXhvsDzR1oZb0OuFM5Ko5Angobv3ommRma5vZNcDlVK/4/8qLf34k3QPcnzpHmxlwqZldY2Zrpw6To3iNf4jqFX+AbzVT/KHJEQAAM1uDcPxmFVYE9PQWocP+YeoguYjnsU8CdkydpQBLgT3ikbMuM2a2B/Aw1WtKIax0OM5fm4MXD/a5hPy39+3N08DOzQz/QwtvDElLgC83+3OZWAu4yswmxzOgXT/M7ExCN13F4g9whV9g8yXpUaCqzfyOhFHLM1MHKTsz28DMJhNO9ati8YfwwbWp4g8tjAAs/0GzW4BRLf1wHuYCJ0qanjpI2ZjZRoQzso9OnaVAfwV2aHZIzZVLfK0+BWycOkuBbiYcff5K6iBlY2b7Eg7vqvIZC7dL+mQrPziUobGvELZGraqtgQfMbJyZfTB1mDIwsy4zO4NwQa1y8Qf4Vy/++YtF8d9S5yjY0cBTZnZG3LSt9szsg2Y2DniAahf/JcDZrf5wyy+WuClKVbYI7osBnyO8ub5kZlXYXawlsZN+mHDgSpU/TQHMAK5JHcK1zY+AR1KHKNjGhPfmw/G9WktmtlpcjfQU4dpdlc19+vKduPlVS1q+BQBgZmsStgge0fKD5OUx4CxJ96YO0ilmtilhs4zPUP03E8AyYB9JD6cO4trHzPYGplOP17CAnxA2OavN2RVmNpKwEmnX1Fk6ZD5hy9+Wl68PabhI0tuEWwF1sSvhkI6pZnZI6jBFMrMtzOx7hNmlJ1OPCyeEA3+8+FeMpIcI273WgRHes0+b2aVmtlXqQEUys4+Z2VRgGvUp/gDnDnXvmiGNACx/ELO7gMOH/ED5mUG4DTJlsHsvl52Z7QScD5wA1G2HxFcJE/9eSh3EtV+cy/MUsGHqLB32HmGp7kWSfp86TDvE27GjCdeqPRLHSeEeSUP+ENquBmAE8Dvq98bq9iTwHWCypIWpwzQrThw6GPgn4Ejq82m/p9MljUsdwhXHzD5PdZcGDsZU4DLgbknvpQ7TLDPbmPDh5Gxgm8RxUnmDsD9Jy/f+u7WlAYDle8Df0JYHy9c7wB3ABOA2SW8lztMvM9sHOB4YQ7UOeWrFTZJGpw7hihfXhB+bOkdiLwGTgfHAg2U+EC3uengUofAfTv1GJns6SdL17XigtjUAAGZ2JXBG2x4wb4uAKYSmaFoZRgbiARgfIbyZjqc+kzcH8iywuy/7q4e4ydej1PcTZE/zgImE69Ujkt5NnKf73+ggwoeTUcA6aROVxrWSTm3Xg7W7AViLcF/c99Rf2TLg98C9hIkq93XiPnM8wnkvwhvpIGBf/I3U07vAgXGSmKsJM/soYY143T9N9rSYsFpiWvya0coOc80ysw8ABxKuUyOB3ajmFs5DMQvYs52H1rW1AQAws50J68WruuViO4gwGWkWMAeY3fA1v9nhODN7P7B9L1+7AGu2L3YlnSfp4tQhXOeZ2VeA76bOUXJvE85+abxGzQFmN7vzoJkZMJyVr1HbEbY13oH6zj0ajLeBvdu9NXnbGwBYfujCVW1/4HpYArxOmOjR+LUIGAas1+NrffxTfavuAD5Z5vufrlhmdivQ0jaqjjcJ16bFhOtT99cSYG1g3fi1TvxzfXzEpVVflPSDdj9oIQ0A+EQbV3p/AnbzJX/1FmeV/w/hk6lzZXSzpGOKeOAiG4ANCG+sEYU8gXOtWwp8TNK01EFcemZ2AHAPUNutvl1pzQP+vqgJyoVNsoiz3o8nDAc5VyZf8+Lvukm6H/i/qXM418MSYGyRq5MKGwFY/gRmYwjr4n1GpyuD8YR1tH7f363EzK4FTkmdwznCyrGxkiYX+SSFF+X4f+Cfin4e5wbhbuD/ePF3ffgcYWKoc6l9uejiDx36VC7pv4BvduK5nOvDb4FjyrDJiSunuDXusYDvCeFS+oak73fiiQq/BbDSk5ldDZzWsSd0Lr0ta+MAAAaoSURBVJgN7C/pr6mDuPKLm9LcD3wodRZXO+Mknd6pJ+t0A7AaYbtJX3frOuUFYD9Jc1MHcfmIR+hOx8/IcJ0zBRgtaWmnnrCjDQAs3y74l8B+HX1iV0evAyOrcgSq6ywz25WwffcGqbO4yrsPOEzS25180o7PzI8n5B0JPNHp53a18g5wlBd/16q47eoowmvJuaLMBD7V6eIPiZbmxT2kDweeT/H8rvKWAidKuid1EJe3+Bo6kfCacq7d5gJHpDqJNNnafEnPA/vjIwGuvd4CPi3pptRBXDXE19Iowt73zrXLY4TJyX9KFaDjcwBWCWC2EXAb4aha54biVcLhPg+mDuKqx8z2BW4FNk6dxWVvGuEW5cKUIZLvzhdvB/wvQhPgXKvmAwd48XdFkTQdOAB4LnUWl7WbgMNTF38oQQMAIOlN4NPAj1NncVl6HNhX0uOpg7hqkzSLMFo5M3UWl6UrgDGSSjGxtBQNAIRduCSdBvxn6iwuKw8SPvnPTx3E1UO8Z3sgYRjXucH6qqR/lLQsdZBuyecA9MbMzgIuoUQNiiulW4Hj4tJS5zrKzIYB1wOFnNXuKmMpcKakcamD9FTKAivpcmAsfpSw69vVhNn+XvxdEnEYdwzwg9RZXGm9Tdjdr3TFH0raAMDyUwQPBuYljuLKZQnwFUmf6+SWmc71RtIySV8EziRc7J3rNodwe3JK6iB9KeUtgEZmtiHh097RqbO45OYAx0t6JHUQ53oys12AScDfpc7ikhsPfEHSG6mD9Ke0IwDdJL0m6Rjgi3iHXWfjgT28+LuykjQT2BO4JnUWl8ybwGclnVj24g8ZjAA0iodzTAJ2TJ3Fdcxi4CxJvkTUZcPMxgJXAeulzuI6ZiZhUnI2u9uWfgSgUTycY0/g2sRRXGc8Buzpxd/lRtIEYHfgt6mzuI64Etgrp+IPmTUAAJIWSzoVOAko/RCLa9kVwN5x4xXnsiPpacJ5J98D8hlqdc14jTDL/8wUp/kNVVa3AHoys+2AcYTVAq4aFgBfKvPMWeeaZWYfB74PbJ06i2ubqYSJfs+mDtKq7EYAGkmaI+kQ4HjCXvAuX0sIu0B+yIu/qxpJdwI7AV8lnFjp8jUXGCXpiJyLP2Q+AtDIzNYB/h04B1gjcRzXnDuAsyXNTh3EuaKZ2VbAd/Glzbl5C/gW8O0ch/t7U5kGoFu8LXAJ8InUWdyAniYUfj8J0tWOmR0KXIrvG5CDm4BzJFVqY7qsbwH0Jt4W+CRwJKHAuPJ5E/gPYGcv/q6uJP0C2A04F5/QXFZPAIdKGl214g8VHAFoFA/rOAf4F3w9bhkIuAE4V9LzqcM4VxZmthlwIWF1U+U+mGXoNeDrwOWS3k0dpiiVbgC6xe2E/xH4MrBp4jh1tIRwatrFkh5PHca5soq3MM8DTgGGJY5TRwsIyzZ/mMNOfkNViwagWxwROIUw5LZ94jh18AZhN7RLJC1IHca5XMQRgbOBLwAbJI5TB08AFwHXS6rNKbS1agC6mVkX8GngfGCvxHGq6AXC5KYrJC1MHca5XJnZ+oSTBs8GNkscp4qmE269/Fw1LIa1bAAamdlBwAXAx1NnqYAngYuBn8Sz0p1zbdAwenkesF3iOFVwB3ChpHtTB0mp9g1ANzPbCfgMMBbYKnGcnCwCphDu8d8taVniPM5VVhy9/DhwAvApYN20ibLyLDCB8AElqz37i+INQA9mZsB+wInAscAH0iYqpXeBuwhH9P5c0puJ8zhXO2a2NmG581hCU+AboK3qRWAyMEHS9NRhysYbgH6Y2erAYYRuexSwTtpESQm4j/BJ/0ZJryTO45yL4kqnownNwCHAamkTJbUQuIXwAeXXkpYmzlNa3gAMUuy2jwKOAQ6iHiMDbwMzgNuAib5237nyiysIxhB2Q92PetwmmA9MA24Gbvc5SIPjDUAL4m2CvwNGEpqBkcDfJg3VHouBB4F7CW+mGf5Gci5fcRRzd1Zcpw4ENkwaqj2eYcV16l5JzyTOkyVvANokbuAxkhVNwYikgQZnIXA/8U0EPCLpvbSRnHNFiZMId2HFdepAYJOkoQZnFiuuU/dK8tNf28AbgIKY2SbADoQlO91f28c/1+9glCWE4yvnALPjn91fc33WvnP1ZmabE65NPb+2BdbsYJRXCdeonl9P+X4ixfAGIAEz+yArGoIRhJ2+1iWcV9DXn+sA7xB211s0wJ8LWFHwn/dJMM65ZsXRguGsaAiG0/81qvvPYYTbiQNdqxYSPpzMBmZLerlD/9dc9P8B1lpXeHAWG/oAAAAASUVORK5CYII=;" vertex="1" parent="1">
          <mxGeometry x="230" y="600" width="42" height="42" as="geometry" />
        </mxCell>
        <mxCell id="6EtSJblDU6huGWQIT681-16" value="" style="shape=image;verticalLabelPosition=bottom;labelBackgroundColor=default;verticalAlign=top;aspect=fixed;imageAspect=0;image=data:image/png,iVBORw0KGgoAAAANSUhEUgAAAgAAAAIACAYAAAD0eNT6AAAABHNCSVQICAgIfAhkiAAAAAlwSFlzAAARTQAAEU0BwDlgYwAAABl0RVh0U29mdHdhcmUAd3d3Lmlua3NjYXBlLm9yZ5vuPBoAACAASURBVHic7N13uF1Vtf7x75vQexFBOhKaCkoRBKlyFQGlSxdseG0oXhUs199tNmwXL6ACIiIdBEG6XoTQ8dJRgdAhIihgSAIEQjJ+f8x1wiGcnLPLWmusufb4PM95opCz90ty1hpjzznXnDIzQr0kLQdMANYCVgeWBBYDFh/l10WBF4FpwPQxfv0LcD9wH/CYmc2q578shNAWksYBK5PuU2sV/3u0e9TQrwsCzzH2vepZ4CHSfeo+M3u6pv+0UFA0ANWQ9HpgbVKhH/paq/h1iRqjvES6yIYagvuHfT1kZrNrzBJCaBhJK/FKkR/+tSawUI1R/kHRDMz1NcnMnq0xx8CIBqAkktYAthn2tYZvoo5MAa4FrgImArfFaEEI7VV8ql8f2Jp0n9oKeL1rqM7cQ7pHTQSuNrO/OOdphWgAeiRpAq8u+Kv6JirFNFJDMJHUFNxiZi+7Jgoh9EzSfMCGpHvU1qSCv5RrqHI8AFxN0RSY2cO+cfIUDUCHJC0I7AzsAWwLrOQaqB7PAdcBFwNnmdmTznlCCGOQtAKwN+l+tQVpbr7tHiN9aDkXuNTMXvKNk4doAEYhaTzwLmB/YHfSYr1BNQu4EjgdOC/m5EJoDklLkT6c7AdsB4z3TeRqCnAecAZwZUxrzls0ACOQtDnpQtobWN45ThO9CFxCusAuMrMXnPOEMHAkLQK8n3Sv2hFYwDdRIz0BnA2cYWY3eodpmmgACpLWAz5IuphW902TlWnA+aSRgd/GUwUhVKdYxLcjaVRyFwZjeL8sDwFnAqeY2d3eYZpg4BsASVsDRwA7eWdpgXuB75EusJiDC6EkxRqkg4EvkR4lDv25BDjSzK72DuJpIBsASSJ1z0cAmzvHaaPHgf8GjjOzad5hQsiVpCWATwKHASs4x2mjG4Ajgd/YABbDgWoAJC0AHEDqotdzjjMIngV+DPwoniAIoXPFSv7DgE8w2IuP63I3afTytEEavRyIBkDS4sDHgc8zGI/vNc0M4GTg+2Z2v3eYEJqq2F/kS6Th/gWd4wyiv5BGL48fhNHLVjcAkuYHPgv8K+3Y/CJ3s4FTgS+b2V+9w4TQFMUn/iOBA4FxznFCepTwv4CjzWymd5iqtLYBkPQe4EfAut5ZwmtMI11cR7X54gphLMM+pPwb6SCd0Cx3A581s//1DlKF1jUAxZ78/w3s6p0ljGkS8Dkzu8w7SAh1k/Ru0oeUWI/UfOcCXzCzR7yDlKk1DUCxKcZXgC9S7wlWoX8XAp83swe8g4RQNUmrAT8k7dwX8vEC8B3gu2Y2wztMGVrRAEjaG/g+sIp3ltCzF4EfAN8ys+e8w4RQNkkLAYcDXwYWdo4TevcQ6QPLBd5B+pV1A1CsmD2BdDhPaIfJwKFmdr53kBDKImlH4FjyOCY8dOZy4BM5n0SY7WpTSfsDtxLFv21WBn4t6dhi97MQsiVpAUk/JJ2oGcW/XXYAbpO0p3eQXmU3AlDM9f8P8FHvLKFydwB7m9kk7yAhdEvSmqS95zfxzhIq91PStEBWawOyagAkvQU4C3iTd5ZQm+nAp8zsFO8gIXRK0n7AccSjfYPkLmCfnA4aymYKQNIhwB+I4j9oFgN+KekXkhb1DhPCaCQtIulE0umYUfwHy/rAzZI+4h2kU40fASgOwzgO2Nc7S3B3D6nDvtM7SAhzk7Q+aYQynusPp5MWCDZ6O+FGjwBI2pi00C+Kf4C0q+NNkj7hHSSE4YqfyT8QxT8k+wO3FjWssRo7AiBpN+AMYlOfMLJjSVt0zvYOEgaXpHHA0cCnvLOERpoB7NfUx5ob2QAU8/0/AcZ7ZwmN9ivgQDN70TtIGDzFY6qnAdk+BhZqMQv4pJmd4B1kbo2bApD0/4DjieIfxrYXcFmxTiSE2khakrQRTBT/MJbxwPFFbWuUxowAFENpxwCf9M4SsnMHsGMcMRzqIGlF4DLSqu8QuvET4DNNmbpsRAMQQ2mhBA8BO5jZfd5BQntJWpf0yX9V7ywhW+cCBzRh6tK9ASiG0i4AtnENEtrg78DOZvZ/3kFC+0janHRy5bLeWUL2JgK7mtmzniFc1wBIegNwNVH8QzmWA66UtIN3kNAukt4H/C9R/EM5tgGuLmqgG7cRgOI//DrigIxQvpnAnmZ2oXeQkL/isJeziIXJoXwPAe/0Wr/k0gAUw/5XAxvU/uZhULwAvNvMrvMOEvIlaRvSnH+cTBmqciewtcd0QO1TAMWCvwuI4h+qtTBwoaQ3ewcJeZK0AeleFcU/VGkD4AKP489rbQCKR/1OI+b8Qz2WJu0TsIp3kJAXSasBlwJLemcJA2Eb4LSiRtam7hGAY4hH/UK9VgYul7SMd5CQB0nLkob9V/TOEgbKnqQaWZvaGoBiF6TY5Cd4WA+4SNIi3kFCsxU/IxcD63hnCQPpk3XuGFjLIsBib//jK3+jEEZ3MbCbmb3sHSQ0j6T5SHP+O3lnCQPv43WcHVD5CEBxqt9Pqn6fEDqwM9C4AzlCY5xAFP/QDD8pamelKm0AirOQzyCenw3N8SFJX/UOEZpF0peBD3nnCKEwHjijqKGVqWwKQNLiwK3AhEreIITezQK2NbNrvYMEf5LeCVwFzOccJYS53Q9sZGbTqnjxKkcAfkoU/9BMQ911bOs64IqnQ84gin9opglUOIVeyQiApI8AJ5b+woPhJWAqMG2ur+mkDUkWn+trCWBRl6T5u8jM3u8dIviR9BsgfgZ68xwj36teBBZj5HvVAi5J8/dhM/tF2S9aegMgaT3gZiAeuZo3AyYB95CGeO4b9jXZuvxLkbQ0sNYIX+sDC5UXu5X+xcz+2ztEqJ+kzwM/9M7RcDOAu3j1Peo+4D4z+0c3LyRJpH05ht+jJgDrAmsDKi926zwHbGxm95b5oqU2AJIWAv5AKjzhFbOBO0jnH0wErjGzp6p+02JryU1Ju0xtA2xOjBbMbSbpMI44QniASHo76TCy+b2zNMxzwA2k+9RE4A91nFsv6XXAVqT71NbAW3E+rbaBbgfeUebfR9kNwE+AT5T2gnmbDpwPnANM9D73GUDS/MDGwK7AvsDqroGa40HSQhv3v6NQveIwstuIk0iHPAycSdoD4RYzm+kbZ87f0TbAB4DdSFMKAY42s8+W9WKlNQDFkZm/KuXF8vUicAlpUdFFZvaCc55RSXoHqRHYG3A9l7oBzjGzvb1DhOpJOgfYyzuHs78CZwNnmtmN3mFGI2lh4H3AfqR9Ggb9cKbdzOyCMl6olAZA0uqkjnqpvl8sT/cCPwDOzvFTZHEAxbbAYaQLbVDn4mrZfSv4GfBdSQ24EPgRcJWZzXbO07ViZGBv4AsM7nbNzwBvNbPJ/b5QWQ3AZcAOfb9Qfv4AHAmcn+PFNJLi+NwjSN32oD0aNQVY28z+7h0klK+YZ55EOiVykMwETge+a2Z/9g5ThuJDy26ke9WmznE8lPIEU9+LLCTtyuAV/98C7zKzzczsvLYUfwAz+5OZHURanXsM0OhpjJItBXzHO0SozLcZrOL/HHAUsKaZfagtxR/AzGYX997NgHeR7smD5H2Sdu73RfoaAShW/f+ZwVlMcydwqJld7R2kLpJWBL4LHOCdpSYGbG5mN3kHCeUpVv3fyGCsLDfgFOBwM3vSO0xdJG0NHA1s4J2lJg8Ab+7nqYB+L4bDGYziPwU4lLRSfGCKP4CZPW5mB5Ie0bndO08NBBxbDDGGFiiePz+GwSj+t5Ieaz14kIo/QHFv3oh0r57iHKcOawJf7OcFeh4BkLQacDewcD8BGs5IOxp+NeaF58y7fRz4BtD2bXT/2cwGdbFYq0j6KPAz7xwVexr4GnBCm6YkeyVpOeBbwEdp96Lm54F1zeyxXr65nwbgV8CePX1zHh4CDjCzG7yDNE2xf/oJwB7eWSr0NGlB4DPeQULvJC1FWvi3nHeWCp0HHBI/q68laXPgNNo9Uv0rM/tAL9/Y05CYpH+i3cX/HGDDKP4jM7NnzGxP4FOkrULbaFngm94hQt/+i/YW/xnAp8xszyj+Iyvu4RuS7ulttZek7Xv5xq5HAIrd5O4A1uvlDRvuBeCwGPrtnKQNgLNI+3m3zWzg7WZ2q3eQ0L3iZ/NW0umPbXMPsI+Z3ekdJBeSPk56KqKN09Z/Ju0N8HI339TLCMChtLP4/wnYNIp/d4ob0MbASd5ZKjCOtGlKyNMPaWfxP4l0MEwU/y4U9/ZNSff6tnkT0PUWwV2NAEhaHHiU9u34dynwATN7zjtIziQdSuqw27baejszu8o7ROhcsc1126bwZgOfM7NjvIPkTNKipG3r3+udpWRTgFXNbFqn39DtjfrjtK/4nwzsEsW/f2Z2NGkHwZe8s5Tsy94BQte+4h2gZC+Shvyj+PepuNfvQtoroU2WItXojnU8AiBpAdKpaSt1n6uxvm1mX/UO0TaS3gX8GljCO0uJNjKz27xDhLEV21nfRXse/3oW2NXMJnoHaZNif4jv0uez9A3zF+CNZtbRh7BuRgAOoD3FfzZpR78o/hUws9+TjvJ8wjtLiY7wDhA69mXaU/z/AmwVxb98lnyJdLBQOcfi+luJLnZt7WgEoOiU/kQ7Fv/NBg40szO8g7SdpDcCVwCrO0cpwyzShhv3ewcJ81acTHof7TjI6n5gezN71DtI20k6mLS4sg2N492kLYLHLO6djgDsQjuKP6RFNFH8a2BmD5KOGX7YN0kpxgNf8g4RxvQl2lP8t4viXw8zO5n2TAWsR6rZY+p0BOB6YPM+QzVBzPk7KLaNvor8RwJeBNYws796BwmvJWl5UrO5kHOUfg0V/77Pew/dkfQ92tEI3GBmW4z1m8YcAShOWGpD8T85ir8PM3uEdowELAgc5h0izNNhRPEP/TmcdjwdsHlRu0c15giApIuBncpK5eRS0qN+Xe2SFMolaVXSSEDO+3JPJT1r+6x3kPAKSYuRFszl/ORJFP8GKHa7/Q357xNwiZntPNpvGHUEQNJ65F/8/0Ta5CeKv7NiPnNb0kFLuVoC6OngjVCpPYjiH0pgZjOBvch/x8Cdiho+T2NNAXywxDAeXgD2jU1+mqMlTcCB3gHCa3T86FMDRfFvmKJm7EuqITkbtYaPOgUg6UHyHq6NM90bqpgOuBJ4o3eWHhiwWq9ncIdySVoBmEye+/5H8W+w4gCh47xz9OEhM5vnPXaeIwDFXto5F/9zovg317CRgAedo/RCwP7eIcIc+xHFP1SgqCE5HyW8RlHLRzTaFMB+FYSpy0PAId4hwuiKT9DbkmcTkPOQc9vkOCUTxT8fh5D3lOU8a/mIUwCSxpOG1FaoMFRVZgNbmlnbTgJrLUmrkKYD1vTO0qW3xpGsvopFTn/2ztGlKP6ZkbQ5cB157hT4BLCymc2a+1/MawRgO/Is/gAnRvHPy7CRgAeco3QrRgH85fZ3EMU/Q0VNOdE7R49WINX015hXA5Dr8P8ztO8Y0IFQ3BC3Ja8mYP/inIzgoPizz6kBiOKft68CU7xD9GjEmv6aBqA49nePyuNU42tm9rR3iNCbYU1ALgfurEw69TD4eCf5bC8dxT9zZvZ34OveOXq0R1HbX2WkEYAdgaWqz1O6W4BY9Z+54ga5FXCbd5YOxaZAfnbzDtCh20hH+kbxz99PgBzX/SxFqu2vMlIDsGf1WUpnwKfNbLZ3kKpI2rJYnNl6ZvYE6ZP1/3pn6cCIc2uhFjn82f8W2Lr4mW49SeMlbemdoyrFQrpDvXP06DW1faQGYNvqc5TuQjO7yTtEVSQdQNpD/5cD1ARMI21Dfbp3ljGsV5xCF2okaWngbd45xnAy8D4zm+4dpA7FvemXwFXFPauVzOxqUmOXm23n/gevagAkrQ6sUk+WUn3XO0BVigvpZNJGJ/szWE3ATNIz3t/3zjKGbb0DDKCt6eA0U0ffNLMPFT/DrTes+O9Puled3OYmgDxrzipFjZ9j7gtozOMDG+h6M7vOO0QV5ir+Q/YHThmgJsDM7EvA50lTPU2Uw1B02zT1z3wW8Ekz+1fvIHWZq/gPaXUTYGZXALd65+jBq2r83A1Ajiuac+zExiTpQNJFNVKh348BagIAzOwo0n/3S95ZRtDUYtRmTfwzfwHYw8x+6h2kLvMo/kNa3QSQZ+15VY1/1U6Aku4DJtSdqA/3AG+y0U40ylBR/E9m7CHOM4EDR9rhqa0kbQecT/OOfl3JzB73DjEIJL0O+BvN2pXtKeD9Znajd5C6FMX/FMbeN2YWcLCZnVZ9qvoU//2TyOtAs/vNbK2h/zOnwEhakbyKP8APB7j4Qzqu8tQBGwm4kjSM1bRiu613gAGyDc0q/g8C74ziP0+tHAkoPngd5Z2jSxOKWg+8usjkNv8/AzjLO0SZuiz+Q/YFThuwJuAOYAvSCFBTNHFIuq2a9Gd9C7CFmU3yDlKXLov/kFY2AaSnlHJb6Dmn1ufcAFxkZlO9Q5Slx+I/ZB8Grwl4hLQT3O+9sxS29Q4wQJrSAFwAbGtmT3oHqUuPxX9I65qAYufZy71zdGnEBiC3BYBNfz68Y5I+SO/Ff8g+wOmS5isnVfOZ2TPAu4HD8V8cOKF4Nj1USNKCwLrOMaYDHzez3QblGX/ou/gPaV0TQH61aE6tl5khaQnSIQdNmlcbzRRgBTN70TtIv4ri/wvKe6b5bOAAM3u5pNfLgqS3kS7E9RxjbD5I88AeJK2P71as1wMHmVlOh1b1rSj+p5KmHMvQmoWBkhYhLUpd1DtLhwxYysymDhWdtcmn+AOcG8V/nvYmTQcMzEgAgJndDmwMHOsYw/uT6SDwavBmAl8jbesbxb9/rRkJMLPnSU8m5UKkmj+n8Kw179/bSGd7B+hXRcV/yN4M2HQAgJm9YGafAXYGPOZlowGonsef8Z+Bd5jZtwbpkVuorPgPaU0TQH41aS3IswF4Gch65z9JB1Fd8R/yAQawCQAws0uA9YELa37rdWp+v0FU5wiAAT8CNjazHHd960vFxX9IW5qAiUBOh9Fl2wDcambPeYfoVVH8T6Kefcw/AJwxoE3A381sF+CTwPM1vW2MAFSvrj/jycC7zewwM5tR03s2RlH8T6Pa4j8k+ybAzJ4F7vDO0YVsG4BrvAP0qubiP2QvBrQJACi2Zd2I9Lx21dYc1D/nOkgS9YyynA6sX+z3PnCGFf99anzb7JsA4GrvAF3ItgHI6Q95DqfiP2Qv4MxBLU5mdi+wOfBt0hRSVeYnr21Bc7MasHCFr/8ksK+ZHWBmUyp8n8ZyKv5Dcm8CJnoH6EJqACQtAyzjHKZTBlzrHaJbzsV/yJ4MdhMw08y+CrwZ+HWFbxXrAKpT1fz/dODfgQlm1qrdRbvhXPyH5NwEXENzTyyd2zKSlhlH8ThAJu4tNn/JhqSD8S/+Q/YEzhrUJgDAzCaZ2R7AVsBNFbxFrAOoTtnN1UzSY6Nrmtl/DNKmPnMriv/p+Bb/IVk2AWb2FOlwoFysPY68hv+btPf7mIri/3OaUfyH7EFqAub3DuLJzK41s3eQbngPlvjSK5X4WuHVXl/S6xjpsa03mdlnzOxvJb1ulooPBKeTHh9uiiybAPKqUWuNA9bwTtGFbLqrhhb/IdEEFMzsbNLQ8ueBMkaXlirhNcLIythq+ffApma2j5ndX8LrZa0o/qfRrOI/JMcmIKefqTXGAUt6p+hCFg1Aw4v/kN2JJgAAM3vJzI4C1gS+D/Szy2Q0ANXp58/2DmBHM9vezG4uK1DOGl78h+TWBNznHaALS44DFvNO0YXGNwCSPkTzi/+QaAKGMbMpZvYl0jz+6fS2oCcagOr0MgLwCHAQsJGZXVZynmxlUvyH5NQE5NQALDYOWNw7RRca3QAUxf9E8ij+Q3YHzo4m4BVm9rCZHQBsClxMdzt8RQNQnW4agD8BnwbWMbNTzCynXdoq1dA5/7Hk0gTk1AAsntMIwPQmn7udafEfshvRBLyGmd1sZu8jLZT9Hp2tEYgGoDpjNQAzgbOAbczsLWb24zYcGlamYcX/A95ZepBDEzCZ9HOYg6xGAJ71DjAvmRf/IbsB50QT8Fpm9qCZHU5a4f8RRt9VMBqA6syrAXgU+FdgFTPb18yy3CysapkX/yGNbgLMzICp3jk6lNcIgHeAkUj6MPkX/yG7Ek3APJnZDDM7ycw2Ad4BnMJrFwwuIakNPwtNNLy5MuAy0s/sG83sm00eIfTWkuI/pNFNAA2tVSPIagSgcQcAFcX/Z7Sj+A/ZFfhVNAGjM7ObzOwgYGXgK6TFZpDO2l7CLVhLSVocmA94mvSkxlpmtqOZ/WbQjujtVlH8z6AdxX9Ik5uAxtWqeYgRgF61tPgP2YXUBCzgHaTpzOwpM/sO6QyAXYHfEg1AFcYBBwMrm9mXzOwB70A5GFb89/LOUoGmNgGNqlWjWEykufUcbliXmNnO3iGg9cV/uMuAvXI+fjmEQSVpYeBMUkPfZrOAg83sNO8gAJKuAN7lnaMDU8cBi3qn6FBdZ7qPStL2DEbxB3gvcIWkZb2DhBA6J2lp4He0v/jDKyMBW3oHKTSiVnVg0XH0t+tZnRbyDlCYCJznHaJGmwHXSVrNO0gIYWySViadTPdO7yw1Ogu4wTtEIZep0xfHkc98RSMWK5rZy8B+wK+8s9RoHeB6SW/xDhJCmDdJ6wHXk469HhSnAwc1aDFoLuvqpo0Dpnmn6FAjGgB4VRNwrneWGq0IXCNpK+8gIYTXkrQ5cC2wineWGjWt+EM+DcD0GAHoUdEE7MtgNQFLAb+VtKt3kBDCKyS9D7gCWMY7S42aWPwhn3V1MQLQjwFtAhYCzpV0iHeQEAJI+ghwPrCwd5YanUEziz/ECEAlGtcAwMA2AeOB4yX9q3eQEAaZpK+SdiId752lRmcAH2xo8Yd8GoCsRgAWldTI4a1hTcAgPR0A8F+Sjomtb0Ool6Rxkv4H+KZ3lpo1uvgXj1/mMgWQ1QgApFPZGqloAvZh8JqATwNnSlrQO0gIg6DYofMM4FDvLDVrdPEvNLZGjSCrEQCACd4BRjPATcAHgEsl5bCjZAjZKs5EuBTY2ztLzXIo/pBXAzA9twag8X+4AzwdsB1wlaQVvIOE0EbFtTWRPLaZLdOZ5FH8IYMaNcy0ccBfvFN0IYs/XDObyWA2ARsCt0n6J+8gIbRJcU3dRrrGBsmZwIGZFH/IpEYVJo8D7vNO0YVs/nCHNQG/9s5SsxWAyyV9qziJLITQI0nzSfoWcDnp2hokuRV/yKhGAfcJWA142DlIp2YAS5lZLucXIGl+0j7Vu3tncXA9sJ+ZPeodJITcSFqVNPe9hXcWB9kV/2Ih9BSac27NWFYbBzxGXgcCbeodohvFSMA+DN5IAKQb1+2S9vAOEkJOimvmdgaz+J9FZsW/sCn5FP8ZwORxZjYbeMA7TRe28Q7QrQFvApYm7Rx4rKRcLo4QXEhaSNKxpI3FlvbO4+As4IAMiz/kVZseMLPZQxu45LQOIKc/5DmGNQHne2dx8ingJknregcJoYmKa+Mm0rUyiHIu/pBXbboPIMcGYPNiXj07RROwN4PbBGwA3CzpQ95BQmiS4pq4mXSNDKKsi39Rkzb3ztGFbBuARYGNvUP0KpoAFgVOknRqsalJCANL0uKSTgVOIp8tZMt2NhkX/8LG5PX396oGYJJjkF5kfRxtNAEAHADcKmkj7yAheCh+9m8lXQuD6mxg/8yLP8Bu3gG6lO0IAKTn67MWTQCQtna+QdLnvIOEUKfiZ/4GGr69ecXa8MkfSSK/mvRKA2BmfwH+5hqnO6tLeod3iH4NawIu8M7iaAHgKEkTJQ3q/GcYEJI2kDQROIr0sz+ohor/y95BSrAFaT+dXPytqPkMP8b1Gqcwvcqt4xpR0QR8gMFuAgC2Jk0JHF0cqRlCa0haWtLRpCH/rb3zOGtT8QfY3ztAl+bU+uENwESHIP3Yuy3n0EcTMMd44DPAJEkfa8vfbxhcksZJ+hhpndVnSD/jg+wcWlT8i+3OczuZcU6tH36DvdohSD/eAGzrHaIs0QS8yuuAE0j7BmzmHSaEXhQ/uzeRfpZf5xynCc4hLfhrRfEvvIf8/m7n1PrhDcBdpH2Mc3KYd4AyDWsCfuOdpSE2IS0S/Lmk13uHCaETkl4v6eekRX6beOdpiDYWf4DcFjBPIdV6YFgDUGwJnNs6gPdJerN3iDIVTcBeRBMwRMCHSdMCn4sTBkNTFSf3fY403P9h0s9uaGnxl/Q20ghATq4paj3w6hEAyG8aQMAR3iHKFk3AiJYkrZy+XdJ23mFCGK74mbyd9DO6pHOcJvkVLSz+hcO9A/TgVTV+7gYgt4WAAPtJyukRjI7EdMA8vRn4vaSzJK3iHSYMNkmrSDoL+D3pZzO84lek48BbV/wlrUF+i/9grho/dwNwGzC9viylmA/4oneIKpjZS6Qm4DLvLA20N3CPpK9LWsI7TBgskpaQ9HXgHvIsBFW7gJYW/8IXyO+JjumkGj+HzOxVv0PS5eQ3r/ECMMHMHvcOUgVJiwJXALEifmRTgZ8CR5nZX73DhPaS9AbS4uNPANF4juxa4N1mNsM7SBUkrQjcDyzsnaVLvzWzHYb/g5Ges764pjBlWhj4rneIqpjZc8DOwL3eWRpqCdJ83EOSTpC0jneg0C6S1pF0AvAQ6Wctiv/I/gi8v63Fv/Bd8iv+MEJtH2kEYAVgMvkNbwBsZWbXeoeoSrHW4XpgRe8sDTebNAR5pJnd5B0m5Kt4lv8I0gFksTHV6B4FthjaZraNJG1Jfk/LAcwCVjKzJ4f/w9f8QJvZE8CVdaUq2dFt3j3OzB4BdiC//RrqNg7YHbhR0lWSdvQOFPIiaUdJVwE3kn6WWntfKcnTwHtaXvzHAUd75+jRlXMXf5j3D/UZFYepytuAj3uHqJKZ/RHYBWjzEFuZtgEukXSnpANjH4EwL8Vz/AdKuhO4hPSzE8b2HLCzmbV9ivLjpBqTo9NH+oevFCFDUgAAIABJREFUmQIAkLQU8CR5nlb1NLC2mT3jHaRKknYFziXPqRpPjwI/AE4s1laEAVcssv0oaWX3qs5xcvMysIuZXeodpEqSliFt8LSsd5YevAgsb2bPzv0vRhwBMLMpQK5/ocuS9t5uNTO7APikd44MrQr8CHhE0n9KWt03TvAiaXVJ/wk8QvqZiOLfHQM+0vbiXziBPIs/wCUjFX8YfV4r12kAgD0ktb44mtkJwNe9c2RqWdKf3UOSrpP0mThvoP2Kffo/I+k60or+r5Pvjd3b4WZ2ineIqhW1ZA/vHH2YZy0fcQoAQNIipGmAxSoKVbUZwGZmdqd3kKpJOgb4tHeOFphF2m/hdODXZjbVOU8oQbFR1O6kc9u3J6bNyvADM2vlBmzDSdqAdKLjQt5ZejSNNPz/wkj/cp4NAICk00gXTa7uATY2s+e9g1SpWJ16JmnXwFCOGaTnZk8nDaHFosuMSFoI2Il0/9qZfG/gTXQqcJCNVjxaoPgQfAuwrneWPpxiZgfN61+O1QDsDFxURaoanWRmH/EOUTVJC5LWbcRBOeWbCpxHagZ+b2aznPOEEUgaT/qEvx9pyDY26ynfZaRFfzO9g1StONL5w945+rSjmc1zK/mxGoBxpN3nJlQQrE6fNbNcn9/sWDHUeRWwoXOUNnsSOBs4w8xu8A4TQNLmpKK/N7C8c5w2+wPwrkF4ekbSZ0kLQ3N2L/Cm4cf/zm3UBgBA0seB40oOVrfZpIMpzvYOUrViJ8fbgBW8swyAyaSG62pgoplN8o0zGCStTXpGf2tgW2Bl10CDYTKwoZk95R2kapL2JY32yTtLnz5mZieO9hs6aQAWBB4m/4LyEmk45PfeQaom6Z+Ay4ndy+r2BKkZuJp07Oaf2j5PWjVJIh2zO1Twtyb/e1FuZgHbmVmOW+B2RdK7SWt/5vfO0qfHgTWKE2XnacwGAEDSl4FvlxTM01RgGzO73TtI1SR9C/iKd44B9zRp3/ChhuCOWD8wumIe/628UvC3Ih7T8/ZvZvaf3iGqJmkT0jb4uT75NtyXzOz7Y/2mThuAJUk7qLVhUc0TwDvN7EHvIFUqtrydCGzhnSXMMZV0VOpQQ3DLICymGo2k+YGNeaXgb0k77jNtcRWw/WjzyG1QTCtdCyznnaUEzwKrmNm0sX5jRw0AgKTvAl/qM1hTPAxsWxyu01qSVgVuB5b2zhJG9BLwIHDfCF+PtWX6oFhMvDKw1ghfbyTPLccHwVPAW83sce8gVZK0JqnRactakm+b2Vc7+Y3dNAArknbOasvF+jCD0QTsQTozIORlBvAAIzcHjzetOSjm6ldi3kU+nsPPiwHvM7NLvINUSdIbScV/FecoZZkBrD7SyX8j6bgBAJD0M9KhGW3xMIPRBBwLfMo7RyjN88D9pAbhH8B00o5f0+f6mvufTQOmz2tjrGLjk8VJc6BDX3P//7n/2TLAmqRHhRcu/b80ePmhmX3BO0SVJK1BKv5tOgPiODP7RKe/udsGYB3gz7RrdfnDpIWBj3oHqUqxK9pNwAbeWUIjzCYd4Tq9+P+LAYvSrus69O5mYIs2r08pDgGbSLuK/2xgHTO7v9Nv6OqCL857PrPbVA23OnBVMV/eSsU2tvuQbvohjCN9in9D8bU4UfxDMhXYt+XFfzXa98kf4NRuij90OQIAIGkl0h77bXhUYriHSNMBbR4J+BBwkneOEEJj7WdmbfuQN0fxQW8i6YNfm0wD1jazJ7r5pq67fjP7C/CNbr8vA2vQ/pGAXwCneecIITTSiS0v/quQPvmv7pukEv/RbfGHHkYAACQtANwFrN31Nzffg6SRgMe8g1RB0uLAreR/vkMIoTx/Bt7e1pNThxX/NzpHqcLdpMc1u5626Wner9he8LO9fG8G3kgaCWjLYyGvUmwOsQ/pGfQQQpgB7NPi4r8yaYe/NhZ/gM/1umaj54U/ZnY5cH6v399wbW8CbgUO984RQmiEw8zsj94hqlCsWbuS9KhqG51nZr/r9Zt7mgKY883pUYq7ae8mHw+QpgMmewepgqSJpO1XQwiD6Xdm9h7vEFUoNq+7irQZVRu9AKzXzz42fT36Y2YPA9/p5zUabk3SSEBbtoic26Gkk75CCINnJi2dypX0BtIn/7YWf4Dv9LuJXRnP/h5J2kynrVrbBJjZncCPvXOEEFz8yMzu8Q5RtmHFv42L1Ic8BHy33xfpawpgzotIO5LOUFbfL9Zc9wNb9fKoRZNJWgqYRDtOwQohdOavpF3jxjwxLieSliOdtrmud5YKGbCzmV3a7wuVsvtXEeSoMl6rwSYAF0tq1QZIZjYF+Ip3jhBCrQ5vYfFfFLiIdhd/gKPKKP5Q0ggAzNkb4Dpgk1JesLkuJ52S9bJ3kLIUJ7ndCGzqnSWEULnrzGxL7xBlkjQfcAGwk3eWit0MvLN4FL9vpe3/XQTal7QlYZvtABzvHaJMxdGynyENLYUQ2ms26Vpvm+Npf/GfRjqnobQ9XEo9AMTMHgD+uczXbKgPS/oP7xBlMrP/A37unSOEUKnjzOx27xBlkvQN4MPeOWrwz0WNLU1pUwCvelHpROAjpb9w8xxiZj/zDlGWYgHNJGAp7ywhhNI9TTow5hnvIGWR9EkG40mmn5vZR8t+0aqOAD2UtEFQ2/1UUmuGnczs78DXvXOEECrxtZYV/92BY7xz1OBuUk0tXSUjAACS1gf+QHt3CRzyHGm3wJu9g5RB0njSYUEbeGcJIZTmVtJhP7O9g5RB0pbA72h/fZkBbGpmd1Xx4lWNAFAE/nxVr98gi5IeD2zFQRNmNouKus0QggsDDm1R8X8T8BvaX/wBPl9V8YcKGwAAM/spcGyV79EQrwcuk/Q67yBlMLOrgdO9c4QQSnGKmV3vHaIMxeE+lwFLe2epwY+LGlqZyqYA5ryBNA44C9ir0jdqhhuBd5nZC95B+lUcpHEv0KqNj0IYMFNJO/5lv4NpsWvpNcBbvLPU4Fxg76pHbSodAQAo/gMOJJ3K1HbvAE7yDlEGM3sc+KZ3jhBCX77RkuIv4EwGo/hPBA6oY8qm8hGAOW8kLUHao/mttbyhr4PN7JfeIfolaXHgUeKxwBBy9Aywqpk95x2kX5IOA/7bO0cN7iKdOfNsHW9W+QjAEDObCuxIOsWo7Y6WtJp3iH4Ve4X/xDtHCKEnx7ak+K9Pu4+dH/Io8N66ij/UOAIw5w2ltUhnBrT99LmJpPUAWa+8lbQC6bjnBZ2jhBA69wKwWrG3R7YkLQT8H+0f+n8a2LLu45lrGwEYYmb3ATuTnp9vs22AL3iH6Fcxf5j9dEYIA+ak3It/4Tu0v/g/D7y/7uIPDiMAc95Y2gG4EJjfJUA9XiJtvnGnd5B+SFqbtBtV7Q1jCKFrs0hb/j7oHaQfRY24FJB3lgrNAnYzs4s83tzthm5mlwN7koaq2moB4DRJWQ+fm9kk4HzvHCGEjpzbguL/OuAXtLv4vwjs41X8wfkTnZldCLwHmOKZo2JvoR2P033XO0AIoSNtuFZ/BqzgHaJCz5IW/J3rGcJtCuBVIaS3kHZ3Wsk7S0UM2N7MrvQO0g9JE4GtvXOEEObpCjP7J+8Q/ZD0ceA47xwV+iup+LtPDTeiAQAoHpu7HFjHO0tFHgPWr/MRj7IVJx9e7J0jhDBPO5jZb71D9ErSOqSDixbxzlKRe0l/R494B4EGLeoq/kC2JJ0g2EarkP+5CJcCf/QOEUIY0e2ZF//5gdNob/G/ifSoXyOKPzSoAQAws6eAd5FGAtroAEl7e4folaXhou955wghjCj3a/M/gI29Q1TkEtK+ME95BxmuMVMAwxWd4C+A/Z2jVOFJYIKZTfcO0ovi7+YB0ohGCKEZHgbWMrOXvYP0onjU+E/AfN5ZKnAy8LEm/t00agRgiJnNJB0g9G+k5yTbZHngX7xD9Kr4uznKO0cI4VV+2MQC04Xv0L7iPwv4mpl9qKl/N40cARhO0jaks+lX9M5SomnAmrnu1CVpMdKixjgkKAR/T5MO/XneO0gvJG1JOua3TSYD+5nZtd5BRtPIEYDhzGwi6QTBS7yzlGhx4OveIXpVTF/EIUEhNMOxuRb/wve9A5TsIuBtTS/+kMEIwJDiPOgvAN+iHdsHvwSsa2ZZno5YHOo0yTtHCIE1zOxh7xC9KBZFn+WdoyQzgSPMLJtji7NpAIZI2gw4E1jdOUoZTjezA7xD9ErS/wGbeOcIYYDdYGZbeIfohaQFSGeMvNE7SwkeBPY1s//zDtKNxk8BzM3MbgI2BFy3UCzJfpI29A7Rh9O9A4Qw4HK+Bj9FO4r/OcBGuRV/yHAEYDhJhwBHAkt7Z+nDb81sB+8QvZC0ImkxYHaNZAgtMAtY0cz+5h2kW5KWIj1OvIx3lj5MAQ43sxO8g/Qq6xt38Qe/NungiNnOcXr1Hknv8g7RCzN7HJjonSOEAXVFjsW/8DXyLf4G/Jx05HK2xR8ybwAg7R5oZocA7yDfbYSPLBY55ijnIcgQcpbltSdpdeBQ5xi9ugXY3Mw+mutj3MNl3wAMKeZf3gF8DMjtL2YT4APeIXp0LumJhhBCfWYAv/YO0aNvAgt6h+jS08A/A5sW69BaoTUNAKS96s3sRNK0wDHktYvgNyVltxOWmf2DdJRzCKE+F5vZVO8Q3ZK0CbCfd44uzAZ+ShruP97Mcp1qHlGrGoAhZjbFzA4FNgKu8M7ToQnAQd4henSGd4AQBkyWw//AvwO5THdeC7zdzD5pZs94h6lC1k8BdErSO4CvAO+n2T98t5pZdqdhSVqEdMjRYt5ZQhgAU4HlzWyGd5BuSFoDuJ/mf/C8HPiOmV3lHaRqTf+LKIWZ3WhmuwLrA6cCjTyYAdhI0qbeIbpVbEN6gXeOEAbEebkV/8InaG7NmUXakXAjM3vvIBR/aO5fRiXM7E9m9kFgLeDHpIU0TfMp7wA9immAEOqR3bUmaUHgo945RvAicDxpW/Z9zew270B1GogpgHmRtDxwGKnoLuEcZ8gMYKXc5pwkzQ/8FVjWO0sILfYk6f6Q0wJnJB0EnOydY5ippMV9R5nZX73DeBmoEYC5mdmTZvYVYCXgYOC3+D85sBDwYecMXTOzmcCvvHOE0HJn51b8C00Y2TTSxmWHkI5PPmKQiz8M+AjASCStQHpM5UDSUwQe7ic9dpLVX46krYmdAUOo0hZmdoN3iG5I2hi42THCXcBppMPXHnPM0TjRAIxC0nrAAcXX6jW//Q5m9tua37MvxW6GfwWW984SQgtNNrNVvEN0S9KJwEdqftvJpEclTzOzO2t+72xEA9CBorC9E9gN2A54G9VPn5xvZrtX/B6lk3QWsLd3jhBa6NRiEXM2JC0N/AVYuIa3uxu4knQ638TcRlA9ZLfznIfiB+na4mvoh3prUjOwHenxwrL3F3i/pFUyHLKaSDQAIVThau8APfgw1RX/SaSCfyVwlZk9WdH7tFaMAJRA0uuAbXilIViXckYIvmFmXy/hdWoj6S2kObcQQrnWMbNJ3iE6VYycTiLtclqG+4GreKXgP17S6w6saAAqUDzzujawHqkZGPp1Hbrrhp8grVadWXrIihQX/d+JxwFDKNMTZvYG7xDdkLQD3Z8TMhN4ALgHuLf49R7g3uLckVCimAKogJm9SPoU/KpPwkVxXI3UEKwDvB5Yuvhaatj/Hvr/KwC7A2fXlb1fZmaSriGtlwghlCPH4f9PF78a6bn7KfP4+guvFPwHzaypO7W2TowANJikxYFxZvasd5ZuSDoM+G/vHCG0yGfM7FjvEN2QtAowDZjatlP02iJGABrMzKZ5Z+hR7AUQQrmyu6YyXMA8cGIEIJRO0jjgGWBJ7ywhtMDTwHLxWFso20BvBRyqUQz3XeudI4SWuCaKf6hCNAChKtkNWYbQUDkuAAwZiAYgVCVuWiGUI5rpUIlYAxAqIWk+0iM+i3pnCSFjU4FlMj0BMDRcjACEShTP8l7vnSOEzF0bxT9UJRqAUKUYugyhPzGVFioTDUCoUjQAIfQnrqFQmVgDECpTnInwHDDeO0sIGXoJWCyns0BCXmIEIFSmOBPhYe8cIWTqwSj+oUrRAISq3ecdIIRMxbUTKhUNQKhaNueXh9Aw0QCESkUDEKoWN7EQehPXTqhUNAChajECEEJvogEIlYoGIFQtbmIh9CaunVCpeAwwVKo4Gvh5YEHvLCFkZAawSJwCGKoUIwChUsXRwA965wghMw9E8Q9ViwYg1CHWAYTQnRj+D5WLBiDUIW5mIXQnrplQuWgAQh1iBCCE7kQDECoXDUCoQ9zMQuhOXDOhctEAhDrECEAI3YkGIFQuHgMMtZA0HVjUO0cIGXiedApg3JxDpWIEINQlPtGE0Jn7o/iHOkQDEOrygHeAEDIR10qoRTQAoS5TvAOEkIl/eAcIgyEagFCX6d4BQshEXCuhFtEAhLrETS2EzkzzDhAGQzQAoS5xUwuhM9Esh1pEAxDqEje1EDoT10qoRTQAoS5xUwuhM3GthFpEAxDqEje1EDoT10qoRTQAoS5xUwuhM7FeJtQiGoBQl7iphdCZaJZDLaIBCHWJm1oInYlrJdQiGoBQl7iphdCZuFZCLaIBCHWJm1oInYnpslCLaABCXeKmFkJnolkOtVCcOhnqImkW0XSGMJrZZjbeO0QYDHEzDnWKTzYhjO457wBhcEQDEOoUDUAIo4trJNQmGoBQJ3kHCCGEkEQDEOq0uHeAEBpuMe8AYXDEIsBQC0kCZhGjACGMJhYBhtrECECoyyJE8Q9hLOMkLeIdIgyGaABCXWJoM4TOxFRZqEU0AKEucVMLoTPRLIdaRAMQ6hI3tRA6E9dKqEU0AKEucVMLoTNxrYRaRAMQ6hI3tRA6E9NloRbRAIS6xE0thM5EsxxqEQ1AqEvc1ELoTFwroRbRAIS6xE0thM7EtRJqEQ1AqEvc1ELoTFwroRbRAIS6xE0thM7EeplQi2gAQl3iphZCZ6JZDrWIBiDUJW5qIXQmrpVQi2gAQl2W9Q4QQiaW8Q4QBkM0AKEuE7wDhJCJNb0DhMEgM/POEFpO0jjgOWAh7ywhZOAFYFGLm3OoWIwAhDqsQhT/EDq1MLCSd4jQftEAhDqs5R0ghMzENRMqFw1AqEPczELoTlwzoXLRAIQ6xM0shO7ENRMqFw1AqEPczELoTlwzoXLRAIQ6xM0shO7ENRMqF48BhkpJGg88DyzgnSWEjMwgPQo42ztIaK8YAQhVW40o/iF0ayHS47MhVCYagFC1GMoMoTexe2aoVDQAoWrRAITQm7h2QqWiAQhVi5tYCL2JaydUKhqAULW4iYXQm7h2QqWiAQhVi5tYCL2JaydUKh4DDJWRtCAwHZjPO0sIGXoJWMzMZnoHCe0UIwChSpsRxT+EXi0AbOwdIrRXNAChSlt7Bwghc9t4BwjtFQ1AqFI0ACH0J66hUJlYAxAqIWk+4B/AYt5ZQsjYVGAZM5vlHSS0T4wAhKpsRBT/EPq1BPBW7xChnaIBCFWJocsQyhHrAEIlogEIVYkGIIRyxLUUKhFrAELpJAl4GljaO0sILfA0sJzFzTqULEYAQhXWJ4p/CGVZFnizd4jQPtEANJSk8ZKWlrSqd5YexJBlCOXKbh2ApCUlLe6dI8xb7NJWo2Jr3LWAdYH1gJWAJef6Wqr4dWgF/YXALrWH7U80ACGUa2vgWO8QXdoF+KWkl4EppMeCh38N/bO/AfcCdwOPxFRHfWINQAUkLU0q8OvySrFfF1gDGN/ly73XzC4vN2G1JP0VWME7Rwgt8oSZvcE7RDeKDzyTgdd18W0vkJqBe0gNwdCvk8zsxdJDDrhoAEogaUVgW2C74tcJJb30/cDaOXXEktYmXcAhhHKtY2aTvEN0Q9KRwOElvNRsUjNwZfE10cyeKuF1B1pMAfRA0vK8UvC3A9au6K1+klPxL8TwfwjV2AbIqgEAfgp8kf7Xm40D3lR8fRowSXfxSkNwtZn9o8/3GDgxAtCB4rG2bYAPkAr+ejW87QvASrn9UEv6JfBB7xwhtNCpZpbdtSXpYmCnit9mNnA7qRk4H7guww9PtYsGYBSSNgAOAPYHVq757X9uZh+t+T37JulRYBXvHCG00GQzy+7akrQTcHHNb/swcBpwmpndXfN7ZyMagLlIWoVU8A8gPc/uZRMzu8Xx/bsmaXPgeu8cIbTY5mZ2o3eIbkgaR1rPtIZThFuBU4EzzOwJpwyNFPsAMOd51Y9Jugp4BPgOvsX/ptyKf2F/7wAhtNx+3gG6ZWazSWsBvGwE/BCYLOlySQdJioPKGPARAElvAA4DPkE6daspDjazX3qH6Iak8cDjwOu9s4TQYk8AK+d2PLCk15EeCVzQO0thKvBj4Cgze9I7jJeBHAGQNEHSccBDpEdUmlT8nwbO8g7Rg+2J4h9C1VYgPYGUleKRvbO9cwyzBPBl4GFJx0pa3TeOj4FqACRtKOlM0vOkH6c53ehwJ2a64UUM/4dQj1yvtR97BxjBQsCngPsknSJpoM5cGIgpAEnbkrq9HZyjjGU2MMHMHvIO0g1JCwFP0qyRlBDaagqwvJm95B2kW5JuBTb0zjEKI22//u3cFlv2otUjAMUn/mtIz4Y2vfgDXJpb8S/sTBT/EOqyFLCjd4geHeMdYAwinWFwg6T/LR4Fb61WNgDFKXrHAjcDW3rn6ZAB/+4dokfZrUwOIXO5XnO/JD0SmIPtgVslHS1pKe8wVWjVFECxY99HgG8DyznH6dbpZnaAd4huSVqCNPy/kHeWEAbI88Drzew57yDdkrQ3+S10/jvwFdIGba0pmq0ZAZC0MXAD8DPyK/4vAl/zDtGjPYjiH0LdFgF29Q7Ro3NIo7M5WY5UW26U9HbvMGXJvgGQtIyknwB/ADbzztOjo83sYe8QPcp1KDKE3GV57RWfoI/wztGjTUlNwAnF3gZZy3oKQNIHSTs85fwX8QywpplN8Q7SLUmvJ23+M947SwgDaCawgpk94x2kF5IuB97jnaMP/wCOMLMTvIP0KssRAEmLSTqFtKAk5+IP8F85Fv/C3kTxD8HL/MCe3iH68GXS4udcLQ0cL+lXuS4SzK4BkLQh6XCHA72zlOBBmrk5Rqdy3ZAkhLbIchoAwMxuA87wzlGCPYHbJGU3BZ1VAyDpUNJCv7W8s5TkKzlu5gFQbJ25uXOMEAbdNpJW9A7Rh38FsrwHzmV14BpJXyyeRstCFg1AsdDvfOB/aOb2vb24ycyatDd2tz7mHSCEwDjgQ94helVsfHacd46SzA98D7golwWCjV8EKOmdpGGiVbyzlGwrM7vWO0QviqM0HyXNgYUQfD0JrJbpGSJIWg54AFjcO0uJHgf2N7OJ3kFG0+gRAElfBSbSvuL/61yLf+EQoviH0BTLAwd7h+iVmf0d+L53jpKtCFwh6f81eUqgkSMAkuYjbbqQ7Q/1KF4G3mxmk7yD9ELS/KRuvW1NWQg5ux9Yx8xmewfpRTGqeD+pmWmb04EPmdlM7yBza9wIgKRFgAtoZ/EH+F6uxb+wH1H8Q2iaCaRdObNkZtOBz3nnqMj+pHUBi3kHmVujRgCKhRMXke+OfmO5Bdi8iZ1gJ4qhrDuBt3hnCSG8xs1mlvU2tZJOo72PF98M7FRMeTRCYxoASasBlwPreGepyPPARmZ2r3eQXknamdSghRCa6V1mdqV3iF4VG+rcBazsnaUi9wE7NOXY90ZMARRnLt9Ae4s/wOdzLv6Fw70DhBBGlese+wAUu6J+iLx3CBzNWsD1kt7qHQQa0ABI2ha4GniDc5QqXWBmx3uH6IekdwBbe+cIIYxqB0lv8w7RDzO7grTnS1utAFxd1D5Xrg2ApD2By4AlPXNU7AnasWlOfPoPIQ9tuFa/DPzZO0SFlgAuk7SXZwi3NQCS3g/8mnYfJmPAjmZ2uXeQfkhah3Qxuo8YhRDGNAuYkPER4wBI2gi4kbTDXlvNAnY3sws93tzlhi5pC+As2l38Af4n9+Jf+CJR/EPIxXjgC94h+mVmtwL/7p2jYuOBs4qaWLvaRwAkvQm4Blim1jeu3x+Bt5vZDO8g/ZD0BuAh2nMGQwiD4HnS9sBPeQfph6TxpDViLgWyRs+Qtoevddqj1k91klYmzfm3vfi/SNoHOuviX/gcUfxDyM0iwKHeIfplZrOAg4Dp3lkqtgxpTUCtjz/W1gBIWppU/AdhF7kvm9ld3iH6JWkJ4BPeOUIIPfm0pEW9Q/TLzB4A/sU7Rw1WAS4vamUtamkAJC0MXAi8uY73c3Y58CPvECU5jHY/oRFCmy0LfMo7RBnM7ATSFvFt9ybgwqJmVq7yNQDFHM55wC6VvlEz/JE0jzPFO0i/JK0K3APU8oMYQqjEVNIhQU94B+lXsZf+VcDGzlHq8Btgj2IKpDJ1jAD8lMEo/pNJj/xlX/wLPyCKfwi5WwI40jtEGYoDg3YGHvTOUoNdgOOqfpNKRwAkHUq7d3QaMgXY0sz+5B2kDJK2B/7XO0cIoRRGuj9d7x2kDJLWBq4DXuedpQafN7OjqnrxyhqAYjvKG2n/CvIXgfeY2dXeQcogaT7gDtJcVAihHW4lPZY82ztIGYqtyX9P+0cpXwK2MLNbqnjxSqYAipWnZ9H+4j8bOLAtxb9wKFH8Q2ibjYBDvEOUxcxuBPYl7aTXZgsAZ0pavIoXr2oNwLHA2hW9dpMcZma/8g5RFknLA//mnSOEUIlvSmrNHixm9hvgM945ajCBtJaudKU3AJIOBA4u+3Ub6LtmdrR3iJJ9h3jsL4S2Whb4hneIMpnZT4Fveueowf6SPlz2i5a6BkDSBNJcUyXDFQ1yKnCQeZ2kVAFJmwE3APLOEkKozGxgYzO73TtImST9gvZ/8HwO2MTM7inrBUtrACQtAFxP+5/R/B2ws5nN9A5SFknjgJuATbyzhBAqd52ZbekdokyS5gcuAt7jnaVidwKblbXNfJlTAEfS/uJ/G7DmaUhCAAAgAElEQVRnm4p/4SNE8Q9hULyzmKptjeKevCfpHt1mGwA/LOvFShkBkLQjcEn/cRrtftIuf9nvqDWcpKWAScBy3llCCLX5K2mHwGneQcokaQXSabMTvLNUbHczO7/fF+l7BEDSQqRV/232ALBd24p/4T+J4h/CoHkD8P+8Q5StuEdvR/rA1mbHlHHQUxlTAIcDa5TwOk31IKn4T/YOUjZJ69OSw0JCCF37nKR1vUOUrbhXt70JWAn4Wr8v0tcUgKTVgLtp725MDwLbmtlj3kGqIOkqYBvvHCEEN78zs1YunJO0MnAl7Z0OeAl4i5nd1+sL9DsC8EPaW/wfIn3yb2vx/zxR/EMYdO+W9M/eIaowACMBCwB9nRPQ8wiApHcDv+3nzRvsYWAbM3vUO0gVJG1MemRzAe8sIQR3M0jnBPzRO0gVBmAk4P1mdlEv39hTA1A8c3kHsF4vb9pwD5OG/R/xDlKFYk/pW2nvxRBC6N6fSU3A895BqtDyJuAB4M1m9mK339jrFMBnaWfxf4QWF//Cj2nnRRBC6N2baPHR7S2fDlgT+GIv39j1CEDxnOUk2rfd71Dxf9g7SFUkHQz8wjtHCKGx9jOzM71DVKXFIwHPA+t2u2atlxGAI2lf8X+UtODvYe8gVZG0Du3fryGE0J/jJK3pHaIqLR4JWAT4frff1NUIQHHYz71Ud4ywh0dJn/wf8g5SFUkLAjcCb/POEhphNulgkenF/18MWJR2XdehdzcDW7Rwy/M5WjoSYKTHAv/c6TfM1+UbfJF23SQeI33yb23xL3yPKP5t8jzpE8wDwD9IhXxa8evwr7n/2TRg+rwWeklahDS6t9iwr7n//9z/bBnSHOQE2vtI8KDZhHQ0+Be8g1TFzCZL2o52NQEi1eiPdPwNnY4ASFqetEJ+oV6SNdBk0qN+D3oHqZKkXYALvHOErs0gFfj7Rvh6vGlHUUsSaXeytUb4eiPtuW8MCgPeZ2atPuOlhSMBLwFvNLO/dPKbu2kAvgV8pY9gTTKZNOz/gHeQKhU/3HeQPqWF5nmJtNvkSEX+saYV+V4Vx02vzLybg9iPopmeAt5qZo97B6lSC5uA75vZlzr5jR01AMWz448BS/YZrAn+DmxpZpO8g1RJ0njSD/VW3lnCHFOBa4GrgYnALW2eZ+1EsafIxqRdKbcGtgSWcA0VhrsK2N7MZnsHqZKkVUmbo63knaUE04BVzOzZsX5jpw3AF0nzyLmbTprzv9k7SNUk/QctPO0rM0+TjiYdKvh3mNks30jNVjSub+WVhmArYFnXUOHfzOw/vUNUrTgc7Rra8UH3K2b2nbF+05gNgKQFSPvir1hSMC8zgZ3N7HfeQaomaRvg97RrwWYOniAV+6GC/6e2DON7KdYWvJlXGoKtgRVcQw2eWaQPTtd4B6lace+8HFjQO0ufngBWH2t3wE4agI8CPysxmAcD9m/zBhdDJL2etNVvG4aymm4yaYj0amBi26eVmkLS2rzSEGxLWl8QqjUZ2NDMnvIOUjVJewFnkf8HqEPMbNTaPWoDUCze+TOwTsnB6vY5M2vtNpdDirUaVwEbOUdpsyeBs4EzzOwG7zABJG0O7AfsDSzvHKfN/gC8y8ye8w5SNUmfAY72ztGne4E3jbZ+Y6wG4L3ApRUEq9NJZtbxc5G5KqZqLgb+yTtLC00FzgNOB34f8/jNVKwf2J7UDOxBLCaswmXALoOweFXSz4EPe+fo045mdtm8/uVYDcAvgQ9Wkaom9wAbt/WEqyHFPOnpwL7eWVpkBqmhOh24xMxmOOcJXZC0ELATsD+wM7EPQZlOBQ5q+/qWYmOsW4B1vbP04RQzO2he/3KeDYCkhUnDnbnu+z8D2MzM7vQOUjVJRwGf887RArOAK0hF/9dmNtU5TyiBpCWA3UnNwPbAeN9ErfADM+vpBLqcSNoAuIl8G8hpwPJm9sJI/3K0RQ7vI9/iD/AvA1L8jyCKf7+uBw4FVjSzHczs5Cj+7WFmU4u/0x1ITzMdSvo7D737QvF4eKsVNeRfvHP0YXFSLR/RaCMA55G65hydZ2Z7eoeoWhzv25engR8DP2/zKZBh3iStTto3/dPEbpm9MOBgMzvFO0jVJJ1LWleSo1+b2YjZR2wAJC1JGv7P8VnIp4G1zewZ7yBVkrQTaY//bg90GnSPAj8AThyE1cxhbJIWBT5G+qS3qnOc3LxMWhSY+2LxUUlaBphEnptSvUiaBnjNzoDzmgLYgzyLP8DXBqD4bwacQxT/btxFWtC6ppn9TxT/MMTMnjOzH5FONTwI+KNzpJzMB5xT3JNaq6gpX/PO0aMFmcfoxbxGAH5Hno+T3Qq8vc37Vktal7SffI6dqIeJwJFt/4QSylM8VbMTcAT/v707j5azKvM9/n0OSJhBUKCbAGGUBoEGkZkA7WXwKhIhBAIIF1SQVmxspp7WdS112SKoDK2AEYSrZGKKMgYnwpQmCLZEIZBACCQKyhRIGALJ7/6x90kqJ2eqOvXWfvf7Pp+1zopknVP186TqfZ7a7x78LI3BehnYX9KTqYMUJe6L8zB57rPyS0mH9vzLVRqAeOzvAvKbKSvCC7Cym7OY2d8SJi9tlTpLyS0j3B65UNJDqcO4fMVNhi4APkU4b9317Tlgv8EeRZuj+Hp4gPxeC0uBzSW92PiXvd0COI78ij+E9Y5VLv4bEjbh8OLft3cI21bvJOloL/5uqCRNlzSKcB7BjwlHOLvebQncFa9VlRRrTI6THlcj1PaV9DYCMBU4rEOh2mUx4d7uiwN+Z4bipiZTCXufu1W9DlwJXCLpz6nDuOoys82BrwCnk/cy6SLdDxxa1c2z4ij508A6qbM06e64FHa5lUYAzGx1YL+ORmqPqytc/FcHJuDFvzdvEo483kLSBV78XdEkLYgb4GwJfA3odYOVmjsAmBivXZUTa8241DlasF/Pf5OVRgDM7KOEAx9y8h6wnaR5qYO0W0PxH506SwlNBs6V9HzqIK6+zGwr4Lvku0a8SDcCYyW9lzpIu5nZFoRRgPelztKkvSQ93P0fPecAHNThMO0wyYt/rfyRcCLZcV78XWqS5sVNxw4Fnkidp2RGAxOqOBIQrz3jU+dowUo1vmcDkOMw80WpA7SbF/9eLQTOBv5e0m9Sh3GukaRfArsB5xDmpLigsk0A8G3C6rOcrFTjl98CiGscXwZymsE5VdIRqUO0kxf/VYiw3fG/SPpL4izODcjMNgMuJGw8ldtysaJU8naAmf2MsEQ0F68BG3fvldM4ArALeRV/gMtSB2gnL/6r+C2wr6TTvPi7XEh6QdIpwP6E42RddUcCLk0doEkbEmo9sHIDkNvw/0vA3alDtIsX/5W8BHyecJyzr+V3WYprxvcCziC8puuuik3APUBuq4+W1/rGBiC3CYCTqzKc5MV/uaXAfxEOc/pRlbd0dvUgaZmkHwI7AN8nvMbrrFJNQLxGTU6do0nLa33jHIAXgU1SJWrBAZIeSB1iqLz4L3cvcFY8f9u5SjKzXYHLyW/Etd0qMyfAzPYBctqF9i+SNoXYAMTdreYnDtWMecDW6u0ko4x48QfC1qrnx9PYnKsFMzubMFFwjdRZEqpSEzAXGJE6RxOGS1rQfQtg+6RRmjfRi38lzCFM8vPi72pF0iWEXVfnpM6SUJVuB0xMHaBJ28OKOQC5NQBTUgcYCi/+AFwP7CHp0dRBnEtB0iOEo2Vz3FCmXarSBPwsdYAmZdsALCbjpTVe/FkMnCrpJElvpA7jXEqS3pB0IvBZwtkWdVSFJuARwrUtF9k2ANMlvZs6RCu8+PMYsKeka1MHca5MJF0D7AnMTJ0lkaybgFiTcpoImG0DMC11gFZ48ecHhHX9s1IHca6MJD0B7A1clTpLIlk3AeRVm0IDELcA3jZxmGbk9EsGal/8XwWOkfTFqp4P7ly7SHpL0heAMYTzL+om5yYgp9q0rZl1GeFc61xO03sb2FDSO6mDDFbNi/+DhGU+z6UO4lxuzGxrwuzyvVJnSSC7JYJmNoyw1/6aqbMM0lZd5DX8P9OLfxaWAf8JHOTF37nWSJoLHABcTH6nzg1VdiMBsTblNIdj+9wagNmpAwxWjYv/C8Dhkv4tp+7duTKS9K6k84BPAH9NnafDsmsCyKhGERuA4alTNCGLX26Ni//vgN3j2ejOuTaRdCdhz4A/pM7SYbk1AVnUqGh4F7Be6hRNKP0vt8bF/9eEIf8XUgdxrookzQcOBO5LnaXDcmoCSl+jGqzXBaybOkUTSr1tZo2L/2Tg476xj3PFkvQacBiZ74baglyagFLXqB7W9RGANqlx8b+cMFt3SeogztVBXE47Gvhh6iwdlkMTUNoa1YusRgDelPRK6hC9qXHx/3dJX45nYjvnOkTSUklnAF9LnaXDSt0ExBqVy5bAWY0AlHJ4uabFfynwWUnfTB3EuTqT9FXgTMLS27oodRNASWtVL7IaAShdV1XT4v8WMCruXe6cS0zSlcCxQDZ7pLRBmZuAXBqArEYAFqUO0Kimxf8V4GOSbksdxDm3gqSbgcOp1/bBZW0CcmkAshoBKE0DUNPi/zxwgKScTrxyrjYkTQNGAn9KnaWDytgE5NIA+AhAs2pa/P8I7BdPK3POlZSkx4D9gCdTZ+mgsjUBuTQA63UBw1KnGKSyLDPbGxiVOkQHPQAcGDchcc6VnKR5hDMEZqTO0kGjCNfmMsjl1NNhXZRwcl0f1k4dAEDSA8BYoA773P8cOFTSq6mDOOcGT9JLwD8Ad6XO0gHvEfYieSB1kCiX2+qLu8hnuKI0v1RJN1L9JuBG4BhJb6UOkgsze5+ZjTGzDVJnqRoz28LMfm5mh5uZpc6TA0mLgaMIjXxVdRf/G1MHaZDLbfU3uijJvfVBKE0DAMubgBOoZhOQ3VncKcXi9HXgOWAS9VqT3SlvAEcSPtE+ZWb/bGbvT5yp9OIOncdSzSagjMUf8mkAFuU0ArBO6gA9SbqB6jUBN+DFf0AWHGZmtwBzgf8ANgPe8zMRCvE6oPi/twO+Aywws6vN7CPpYpVfbAJGU60moKzFH/JpAHwEYKgq1gTcAJzgxb9vZraRmZ0DPAVMJUw+Wq3hW15LEqzi4nbTr/f467WA04Dfmtl/m9nJZpbLpOaOkvQu1WkCylz8IZ8GIKsRgPXLeu+vIk2AF/9+mNleZnYtsAC4mPAptDc+YbI4/TVXewPXEUYFLjSzrTuUKRsNTcDPUmcZglIX/1ij1k+dY5CyGgF4HzA8dYi+xCbgRPJsArz498LMVjez08zsEeAh4BRgzQF+zBuA4gxmdGVj4HxgjpndZmZ7FpwpK7EJOJY8m4BSF/9oOLBG6hCDlNUIAMD2qQP0R9Jk8msCJuPFfxVmdizwOHA1sEcTP+oNQHGaub3SBXwCmGFm15vZiEISZSjTJiCH4g8lr1E9ZDUCABn8cjNrAiYDJ3rxX8HMDjazhwi/m1Zebz4HoDit/G6NcHtulpldZGYbtjlTljJrAnIp/pBBjWqwqIu8Do/I4pfb0AQsTZ2lH178G5jZLmZ2O/AbYK8hPJSPABRnKM3VMOBc4GkzO9vMchmmLUxDEzAldZZ+5FT8IZMaFS3sIixhykVfE69KJzYBJ1DOJsCLf2RmW5rZdcD/AP+7DQ/pDUBx2jG6shHwPeAJMxvThsfLWmwCxlDOJiC34g8Z1ShgbhcwO3WKJuyYOkAzSjoS4Pf8Wb6c72LCcr6TCfeM2+EvbXoct6oFbXysbYBJcfngAW183OyUtAnIsfhDXjVqdm4NwA5m9oHUIZohaRLlaQImEYp/GbIkYWZrmdkFwNPAObT/MKw6ncLWaUX8bvcG7jOzm81shwIePwslawKyLP6xNuX0GprdJell8hm2NODA1CGaVZImYBJh2L/Oxf8oQsP7LaCoyWB+ZHJxZhX42J8G/mhm3zSz9xX4PKVVkiYgy+IfHUioUTl4VdLL3cOeOY0CHJQ6QCsSNwG1Lv5mtp6ZXUO4sG1e4FO9Bcwr8PHr7hng3QIff3XgX4HpZvahAp+ntBqagFsSPH3OxR/yqk2zYcV9z5wagJGpA7QqNgEn0dkmoO7FfyTwGHBqB57uSUka+NtcK+K8lac78FQfAR41s9M78FylE5uA4+hsE5B78Ye8alO2DcBuOR+3KmkinWsCJlLT4m9mw8zsIsKyvhEdetoih6hd0Kk5FmsDV5nZlNzmHbVDh5uA7It/rEm7pc7RhGwbgC7yGmpZRYeagInASTUt/rsBDxPWfbdrdv9g+P3/4nW6yToKmGlmh3f4eZPrUBOQffGPDqKz15qhyrYBgHCPKmsFNwG1LP5m1hVn+M8AdkkQwUcAipdilcVmwJ1mdomZDXQWRKU0NAE3F/DwVSn+EDZUyslsAJPUPXyR0xami4BNJb2ZOshQmdnxwE9Z+UjZoahr8d8G+H/A/glj7CppZsLnrzwz2xd4MGGEPxCW0tbq3zmujJgIHN2mh6xM8TeztQj7f5TyyPo+bChpYReApIXk9ellXeDI1CHaIY4EfIb2jARMoJ7F/3PA70lb/JcRNhVyxUq9z8KHgYfjdsK5LPkasjgScDztGQmoTPGPPklexX9WrPkr3bOYlihMq05IHaBdJE1g6E3ABOAzdSr+ZraumU0BxpH+DThL0juJM1SepFcIywFTGkbYTvjOOh0u1KbbAVUr/gBjUwdo0vJa39gA3JsgyFAcYWbvTx2iXYbYBNSx+G8K3EOYpFUGv0kdoEbK8rs+nLCL4PDUQTolLsVstQmoXPGPt8/bcYZIJy2v9Tk3AGuQX+fVrxabgDoW/x0I94E/kjpLg7IUpToo0+/6w4SNg3ZOHaRTGpqAm5r4scoV/2gM7d9OvGjLa7017ltiZk8TDsnIxRzgQ5KWpQ7STmY2FvgJA08MrGPx3we4FSjT2mwBm0h6KXWQOjCzzYH5qXP08BpwlKTcPki1zMxWJ0wMPGaAb61k8TezLuBxIKddI5+RtG33f/Rct5jbi3c7Bn7xZSeOBJxM/yMB46lf8f8U8GvKVfwBZnrx7xxJCyjf0uUNgbvNbHTqIJ0SRwKOp/+RgEoW/2gUeRV/6FHjezYAuU0EBDg/dYAiSBpP303AeODkmhX/LxDuO66VOksvyjQkXRdl/J0PIxwxfFbqIJ0yQBNQ5eIPcEHqAC1YqcbnPgIAsKeZ/UPqEEXoowmoY/H/BnAF7dsrod3KWIyqrqy/8y7gMjP7Vl2WCTY0AY2FvtLF38wOAfZKnaMFK9X4leYAAJjZ80Bus1rvllTZrTrN7ATCJjeTqFHxj5uPjANOSZ2lH8uAD0jK5UjtSjCzzYA/p84xgJ8Cp8Xlc5UX5wRMIAyNV7b4A5jZVOCw1DmaNF/SFo1/0VsD8FPCsbW5GSnpvtQhimJmBwDTa1T81yUMK5b9TfaopDKtRqgNM3sC2DF1jgH8AjhG0hupg3RCbAL2lvRA6ixFiSeM5ni7/HpJJzX+RW+HFxSx53MnXG5mZR0iHjJJ99eo+G9GGKoqe/GH8g5F18GvUwcYhEOBafE1XXmS3qt48V8NuDx1jhatUtt7awDuAF4vPkvb7QackTqEG5q4qcp9wO6pswzSlNQBauyG1AEGaXdqtmFQhZ0J7Jo6RAsWArf3/MtVGgBJb9OZM6CL8HUz2zh1CNeaeIH8DWF5Zw6eBSr7aScD0yjffgB92Q64x8y2GPA7XSmZ2QeBr6fO0aJbetuqvK/zi8cXHKYoGwHfSB3CNS/D4g/hnpoG/jZXhPi7z+latS3eBOTsm4T9HnLU6/tklUmAsPw+x5+ATQoOVYRlwD6SHk4dxA1OpsUfYCdJT6QOUWdmtivhJMicPAMcIum51EHc4MRjqB8Aclza+SKweW9zyHodAYjfmMv9tZ66gPFmtl7qIG5gGRf/R734pyfpMWBm6hxN2oYwErBl6iBuYPHAn+vJs/gDTO5rAnlftwAgrOfM1XbAValDuP5lXPwhrPF25XB96gAt2JqwOmCr1EHcgMYR/r1y1Wct7/UWAEDcxepZIOcu9fOSfpQ6hFtV5sV/KTBc0gupgziI99TnkecntGeBgyXNSx3ErcrMTifvD5PPSuqzeelzBCBOsJlYSKTOuaxOx3TmIvPiD/ArL/7lIel58tzGHGAEYSRgRNoYricz+zBwSeocQ9TvSH5/twAgHEmbs7UIh3OskzqICypQ/CHPIeeqy/mWzFaEOQE5DzNXSqwZEynn4WPN6Pd90W8DIOkPwNS2xum8nYEb477yLqGKFP/XyXe3zCq7gTw3MOvmTUBJxFpxI6F25OxOSY/39w0DjQAAXNimMCkdAVxdl9O5yqgixR/gB5IWpQ7hViZpIXBl6hxDtCXhdsA2qYPUVawRVxNqRu4GrN19TgJc6ZvMZgAfbUeixC6WdF7qEHVToeL/NjBC0oupg7hVmdnfAHOBYamzDNHzhImBz6QOUjdmdhFwbuocbTBD0t4DfdNgRgCgGqMAAOea2T+nDlEnFSr+ANd48S8vSX8Grkudow22IIwEbJs6SJ3E2lCF4g/w7cF802BHALqAJ4AdhhiqDAScKqkKF4pSixud/IpqFP/3gO0lPZs6iOubmW0HzAKqcDLofOBjkp5KHaTqzOwU4MfkuZS0p9nAjpKWDfSNgxoBiA908VBTlYQBP/aRgGKZ2S7Ag1Sj+ANM9OJffpLmECZwVcFw4H4z2zN1kCqLtaAqxR/Cre4Biz8McgQAwMyGEe6v/c0QgpXNxcD5fqBLe5nZQcDPgA1SZ2kTAbtI+mPqIG5gZrY78GjqHG20CDha0i9SB6mSOOHv21Rn2B/Cvv9b9XbyX28GOweA+IC5b4rQ07nAdb5EsH3MbDRh6WhVij/ArV788yHpd+S/fLnRusDtZnZ86iBVEa/511Gt4g9w2WCLPzQxAgBgZusTZqiu30KwMrsLGC1pceogOTOzLwGX0kRjmYl9Jf136hBu8MzsYMLk0yoRcLaky1IHyVnc5OdGqrHUr9EbwJaSXhvsDzR1oZb0OuFM5Ko5Angobv3ommRma5vZNcDlVK/4/8qLf34k3QPcnzpHmxlwqZldY2Zrpw6To3iNf4jqFX+AbzVT/KHJEQAAM1uDcPxmFVYE9PQWocP+YeoguYjnsU8CdkydpQBLgT3ikbMuM2a2B/Aw1WtKIax0OM5fm4MXD/a5hPy39+3N08DOzQz/QwtvDElLgC83+3OZWAu4yswmxzOgXT/M7ExCN13F4g9whV9g8yXpUaCqzfyOhFHLM1MHKTsz28DMJhNO9ati8YfwwbWp4g8tjAAs/0GzW4BRLf1wHuYCJ0qanjpI2ZjZRoQzso9OnaVAfwV2aHZIzZVLfK0+BWycOkuBbiYcff5K6iBlY2b7Eg7vqvIZC7dL+mQrPziUobGvELZGraqtgQfMbJyZfTB1mDIwsy4zO4NwQa1y8Qf4Vy/++YtF8d9S5yjY0cBTZnZG3LSt9szsg2Y2DniAahf/JcDZrf5wyy+WuClKVbYI7osBnyO8ub5kZlXYXawlsZN+mHDgSpU/TQHMAK5JHcK1zY+AR1KHKNjGhPfmw/G9WktmtlpcjfQU4dpdlc19+vKduPlVS1q+BQBgZmsStgge0fKD5OUx4CxJ96YO0ilmtilhs4zPUP03E8AyYB9JD6cO4trHzPYGplOP17CAnxA2OavN2RVmNpKwEmnX1Fk6ZD5hy9+Wl68PabhI0tuEWwF1sSvhkI6pZnZI6jBFMrMtzOx7hNmlJ1OPCyeEA3+8+FeMpIcI273WgRHes0+b2aVmtlXqQEUys4+Z2VRgGvUp/gDnDnXvmiGNACx/ELO7gMOH/ED5mUG4DTJlsHsvl52Z7QScD5wA1G2HxFcJE/9eSh3EtV+cy/MUsGHqLB32HmGp7kWSfp86TDvE27GjCdeqPRLHSeEeSUP+ENquBmAE8Dvq98bq9iTwHWCypIWpwzQrThw6GPgn4Ejq82m/p9MljUsdwhXHzD5PdZcGDsZU4DLgbknvpQ7TLDPbmPDh5Gxgm8RxUnmDsD9Jy/f+u7WlAYDle8Df0JYHy9c7wB3ABOA2SW8lztMvM9sHOB4YQ7UOeWrFTZJGpw7hihfXhB+bOkdiLwGTgfHAg2U+EC3uengUofAfTv1GJns6SdL17XigtjUAAGZ2JXBG2x4wb4uAKYSmaFoZRgbiARgfIbyZjqc+kzcH8iywuy/7q4e4ydej1PcTZE/zgImE69Ujkt5NnKf73+ggwoeTUcA6aROVxrWSTm3Xg7W7AViLcF/c99Rf2TLg98C9hIkq93XiPnM8wnkvwhvpIGBf/I3U07vAgXGSmKsJM/soYY143T9N9rSYsFpiWvya0coOc80ysw8ABxKuUyOB3ajmFs5DMQvYs52H1rW1AQAws50J68WruuViO4gwGWkWMAeY3fA1v9nhODN7P7B9L1+7AGu2L3YlnSfp4tQhXOeZ2VeA76bOUXJvE85+abxGzQFmN7vzoJkZMJyVr1HbEbY13oH6zj0ajLeBvdu9NXnbGwBYfujCVW1/4HpYArxOmOjR+LUIGAas1+NrffxTfavuAD5Z5vufrlhmdivQ0jaqjjcJ16bFhOtT99cSYG1g3fi1TvxzfXzEpVVflPSDdj9oIQ0A+EQbV3p/AnbzJX/1FmeV/w/hk6lzZXSzpGOKeOAiG4ANCG+sEYU8gXOtWwp8TNK01EFcemZ2AHAPUNutvl1pzQP+vqgJyoVNsoiz3o8nDAc5VyZf8+Lvukm6H/i/qXM418MSYGyRq5MKGwFY/gRmYwjr4n1GpyuD8YR1tH7f363EzK4FTkmdwznCyrGxkiYX+SSFF+X4f+Cfin4e5wbhbuD/ePF3ffgcYWKoc6l9uejiDx36VC7pv4BvduK5nOvDb4FjyrDJiSunuDXusYDvCeFS+oak73fiiQq/BbDSk5ldDZzWsSd0Lr0ta+MAAAaoSURBVJgN7C/pr6mDuPKLm9LcD3wodRZXO+Mknd6pJ+t0A7AaYbtJX3frOuUFYD9Jc1MHcfmIR+hOx8/IcJ0zBRgtaWmnnrCjDQAs3y74l8B+HX1iV0evAyOrcgSq6ywz25WwffcGqbO4yrsPOEzS25180o7PzI8n5B0JPNHp53a18g5wlBd/16q47eoowmvJuaLMBD7V6eIPiZbmxT2kDweeT/H8rvKWAidKuid1EJe3+Bo6kfCacq7d5gJHpDqJNNnafEnPA/vjIwGuvd4CPi3pptRBXDXE19Iowt73zrXLY4TJyX9KFaDjcwBWCWC2EXAb4aha54biVcLhPg+mDuKqx8z2BW4FNk6dxWVvGuEW5cKUIZLvzhdvB/wvQhPgXKvmAwd48XdFkTQdOAB4LnUWl7WbgMNTF38oQQMAIOlN4NPAj1NncVl6HNhX0uOpg7hqkzSLMFo5M3UWl6UrgDGSSjGxtBQNAIRduCSdBvxn6iwuKw8SPvnPTx3E1UO8Z3sgYRjXucH6qqR/lLQsdZBuyecA9MbMzgIuoUQNiiulW4Hj4tJS5zrKzIYB1wOFnNXuKmMpcKakcamD9FTKAivpcmAsfpSw69vVhNn+XvxdEnEYdwzwg9RZXGm9Tdjdr3TFH0raAMDyUwQPBuYljuLKZQnwFUmf6+SWmc71RtIySV8EziRc7J3rNodwe3JK6iB9KeUtgEZmtiHh097RqbO45OYAx0t6JHUQ53oys12AScDfpc7ikhsPfEHSG6mD9Ke0IwDdJL0m6Rjgi3iHXWfjgT28+LuykjQT2BO4JnUWl8ybwGclnVj24g8ZjAA0iodzTAJ2TJ3Fdcxi4CxJvkTUZcPMxgJXAeulzuI6ZiZhUnI2u9uWfgSgUTycY0/g2sRRXGc8Buzpxd/lRtIEYHfgt6mzuI64Etgrp+IPmTUAAJIWSzoVOAko/RCLa9kVwN5x4xXnsiPpacJ5J98D8hlqdc14jTDL/8wUp/kNVVa3AHoys+2AcYTVAq4aFgBfKvPMWeeaZWYfB74PbJ06i2ubqYSJfs+mDtKq7EYAGkmaI+kQ4HjCXvAuX0sIu0B+yIu/qxpJdwI7AV8lnFjp8jUXGCXpiJyLP2Q+AtDIzNYB/h04B1gjcRzXnDuAsyXNTh3EuaKZ2VbAd/Glzbl5C/gW8O0ch/t7U5kGoFu8LXAJ8InUWdyAniYUfj8J0tWOmR0KXIrvG5CDm4BzJFVqY7qsbwH0Jt4W+CRwJKHAuPJ5E/gPYGcv/q6uJP0C2A04F5/QXFZPAIdKGl214g8VHAFoFA/rOAf4F3w9bhkIuAE4V9LzqcM4VxZmthlwIWF1U+U+mGXoNeDrwOWS3k0dpiiVbgC6xe2E/xH4MrBp4jh1tIRwatrFkh5PHca5soq3MM8DTgGGJY5TRwsIyzZ/mMNOfkNViwagWxwROIUw5LZ94jh18AZhN7RLJC1IHca5XMQRgbOBLwAbJI5TB08AFwHXS6rNKbS1agC6mVkX8GngfGCvxHGq6AXC5KYrJC1MHca5XJnZ+oSTBs8GNkscp4qmE269/Fw1LIa1bAAamdlBwAXAx1NnqYAngYuBn8Sz0p1zbdAwenkesF3iOFVwB3ChpHtTB0mp9g1ANzPbCfgMMBbYKnGcnCwCphDu8d8taVniPM5VVhy9/DhwAvApYN20ibLyLDCB8AElqz37i+INQA9mZsB+wInAscAH0iYqpXeBuwhH9P5c0puJ8zhXO2a2NmG581hCU+AboK3qRWAyMEHS9NRhysYbgH6Y2erAYYRuexSwTtpESQm4j/BJ/0ZJryTO45yL4kqnownNwCHAamkTJbUQuIXwAeXXkpYmzlNa3gAMUuy2jwKOAQ6iHiMDbwMzgNuAib5237nyiysIxhB2Q92PetwmmA9MA24Gbvc5SIPjDUAL4m2CvwNGEpqBkcDfJg3VHouBB4F7CW+mGf5Gci5fcRRzd1Zcpw4ENkwaqj2eYcV16l5JzyTOkyVvANokbuAxkhVNwYikgQZnIXA/8U0EPCLpvbSRnHNFiZMId2HFdepAYJOkoQZnFiuuU/dK8tNf28AbgIKY2SbADoQlO91f28c/1+9glCWE4yvnALPjn91fc33WvnP1ZmabE65NPb+2BdbsYJRXCdeonl9P+X4ixfAGIAEz+yArGoIRhJ2+1iWcV9DXn+sA7xB211s0wJ8LWFHwn/dJMM65ZsXRguGsaAiG0/81qvvPYYTbiQNdqxYSPpzMBmZLerlD/9dc9P8B1lpXeHAWG/oAAAAASUVORK5CYII=;" vertex="1" parent="1">
          <mxGeometry x="690" y="600" width="42" height="42" as="geometry" />
        </mxCell>
        <mxCell id="6EtSJblDU6huGWQIT681-17" value="" style="shape=mxgraph.signs.transportation.airplane_3;html=1;pointerEvents=1;fillColor=#000000;strokeColor=none;verticalLabelPosition=bottom;verticalAlign=top;align=center;rotation=90;" vertex="1" parent="1">
          <mxGeometry x="450" y="460" width="60" height="68" as="geometry" />
        </mxCell>
      </root>
    </mxGraphModel>
  </diagram>
</mxfile>
